<?xml version="1.0" encoding="UTF-8" standalone="no"?>
<svg
   version="1.1"
   id="svg1"
   sodipodi:docname="vector_whiteIcons.svg"
   inkscape:version="1.3.2 (091e20ef0f, 2023-11-25, custom)"
   xmlns:inkscape="http://www.inkscape.org/namespaces/inkscape"
   xmlns:sodipodi="http://sodipodi.sourceforge.net/DTD/sodipodi-0.dtd"
   xmlns="http://www.w3.org/2000/svg"
   xmlns:svg="http://www.w3.org/2000/svg">
  <sodipodi:namedview
     id="namedview1"
     pagecolor="#ffffff"
     bordercolor="#666666"
     borderopacity="1.0"
     inkscape:showpageshadow="2"
     inkscape:pageopacity="0.0"
     inkscape:pagecheckerboard="0"
     inkscape:deskcolor="#d1d1d1"
     inkscape:zoom="1.86"
     inkscape:cx="256.98925"
     inkscape:cy="403.76344"
     inkscape:window-width="3440"
     inkscape:window-height="1370"
     inkscape:window-x="0"
     inkscape:window-y="0"
     inkscape:window-maximized="1"
     inkscape:current-layer="svg1" />
  <defs
     id="defs1" />
  <g
     id="g1">
    <path
       stroke="none"
       fill="#FFFFFF"
       d="m 750.18945,230.55275 v 28.30186 q 0,0.85916 -0.60647,1.46563 -0.60647,0.55593 -1.4151,0.55593 h -8.08624 q -0.85916,0 -1.46563,-0.55593 -0.55593,-0.60647 -0.55593,-1.46563 v -28.25132 q 0,-0.85916 0.55593,-1.46563 0.60647,-0.60647 1.46563,-0.60647 h 8.08624 q 0.80863,0 1.4151,0.60647 0.60647,0.60647 0.60647,1.41509 m -5.60983,56.50265 0.40431,-0.50539 q 1.41509,-1.4151 3.33557,-1.4151 1.97103,0 3.38612,1.4151 1.36455,1.41509 1.36455,3.38611 0,1.92049 -1.36455,3.33557 1.56671,0.65701 2.88073,2.02157 2.57748,2.62803 2.57748,6.31737 v 0.0505 q 0,1.97103 -2.57748,3.28503 -1.71833,0.96024 -3.89151,1.26348 v -0.15162 -0.0505 q 0,-5.9636 -4.19475,-10.15833 v -0.0505 l -2.07209,-1.71833 0.30324,-0.70755 0.20215,-0.10108 -0.15161,-0.10107 q 0.40431,-1.31401 0.40431,-2.67857 0,-1.86994 -0.60647,-3.43665 m -2.62803,8.2884 q 1.56671,0.85916 2.88072,2.17318 3.48719,3.53772 3.48719,8.49054 v 0.0505 0.30324 q -0.20216,2.42587 -3.48719,4.1442 -3.43665,1.81941 -8.33894,1.81941 -4.90229,0 -8.38948,-1.81941 -3.2345,-1.71833 -3.43666,-4.1442 v -0.30324 -0.0505 q 0,-4.95282 3.43666,-8.49054 1.36455,-1.31402 2.88073,-2.17318 l 0.96024,-0.45486 q -1.76887,-1.8194 -1.76887,-4.39689 0,-2.67857 1.86995,-4.54851 1.81939,-1.92049 4.44743,-1.92049 2.62803,0 4.49797,1.92049 1.81941,1.86994 1.81941,4.54851 0,2.57749 -1.76887,4.39689 l 0.90971,0.45486 m -8.5411,-66.20614 q 0.60646,0.60647 0.60646,1.41509 v 28.30186 q 0,0.85916 -0.60646,1.46563 -0.60647,0.55593 -1.41509,0.55593 h -8.08626 q -0.85916,0 -1.46563,-0.55593 -0.55592,-0.60647 -0.55592,-1.46563 v -28.25132 q 0,-0.85916 0.55592,-1.46563 0.60647,-0.60647 1.46563,-0.60647 h 8.08626 q 0.80862,0 1.41509,0.60647 m -31.78906,1.31401 v 28.30186 q 0,0.85916 -0.60647,1.46563 -0.60647,0.55593 -1.4151,0.55593 h -4.04311 q -0.85917,0 -1.46564,-0.55593 -0.55592,-0.60647 -0.55592,-1.46563 v -28.25132 q 0,-0.85916 0.55592,-1.46563 0.60647,-0.60647 1.46564,-0.60647 h 4.04311 q 0.80863,0 1.4151,0.60647 0.60647,0.60647 0.60647,1.41509 m -19.65968,-1.41509 q 0.60646,-0.60647 1.46563,-0.60647 h 4.04312 q 0.80862,0 1.41509,0.60647 0.60647,0.60647 0.60647,1.41509 v 28.30186 q 0,0.85916 -0.60647,1.46563 -0.60647,0.55593 -1.41509,0.55593 h -4.04312 q -0.85917,0 -1.46563,-0.55593 -0.55593,-0.60647 -0.55593,-1.46563 v -28.25132 q 0,-0.85916 0.55593,-1.46563 m -12.12937,0 q 0.60646,-0.60647 1.46563,-0.60647 h 4.04313 q 0.80861,0 1.41508,0.60647 0.60647,0.60647 0.60647,1.41509 v 28.30186 q 0,0.85916 -0.60647,1.46563 -0.60647,0.55593 -1.41508,0.55593 h -4.04313 q -0.85917,0 -1.46563,-0.55593 -0.55593,-0.60647 -0.55593,-1.46563 v -28.25132 q 0,-0.85916 0.55593,-1.46563 m 18.14351,61.50601 q 0,-2.32479 1.61725,-3.89151 1.61725,-1.61725 3.84097,-1.61725 2.27426,0 3.89151,1.61725 1.5667,1.56672 1.5667,3.89151 0,2.22371 -1.5667,3.79042 1.81939,0.75809 3.33557,2.27426 2.9818,2.9818 2.9818,7.27761 0,2.27426 -2.9818,3.84097 -2.9818,1.56671 -7.22708,1.56671 l -5.20553,-0.70754 q 2.67857,-1.97103 2.47642,-4.70014 0,-4.85173 -3.2345,-8.38947 0.96024,-0.70754 2.0721,-1.1624 -1.56671,-1.56671 -1.56671,-3.79042 m -5.60983,3.79042 q 1.8194,0.75809 3.33558,2.27426 l 0.25269,0.2527 q 2.7291,2.93126 2.7291,7.02491 0,2.17318 -2.7291,3.68935 l -0.25269,0.15162 q -2.98181,1.56671 -7.22709,1.56671 -4.24527,0 -7.22708,-1.56671 -2.93127,-1.56671 -2.98181,-3.84097 0,-4.29581 2.98181,-7.27761 1.51617,-1.51617 3.28504,-2.27426 -1.51617,-1.56671 -1.51617,-3.79042 0,-2.32479 1.61725,-3.89151 1.5667,-1.61725 3.84096,-1.61725 2.27426,0 3.89151,1.61725 1.56671,1.56672 1.56671,3.89151 0,2.22371 -1.56671,3.79042 m 46.0916,-7.27761 q -0.65701,1.56671 -0.65701,3.43665 0,1.36456 0.40432,2.62803 l -0.15162,0.15161 0.25269,0.15162 0.2527,0.65701 q -1.11186,0.75809 -2.0721,1.71833 v 0.0505 q -4.19475,4.19473 -4.19475,10.15833 v 0.20216 q -2.17317,-0.30324 -3.8915,-1.26348 -2.57749,-1.314 -2.62803,-3.28503 v -0.0505 q 0,-3.68934 2.62803,-6.31737 1.26348,-1.36456 2.88073,-2.02157 -1.36455,-1.41508 -1.36455,-3.33557 0,-1.97102 1.36455,-3.38611 1.41509,-1.4151 3.38611,-1.4151 1.97102,0 3.38612,1.4151 l 0.40431,0.50539 m 8.5411,50.23579 q -4.19474,0 -7.17654,2.93126 -2.98181,2.98181 -2.98181,7.17655 0,4.24527 2.98181,7.17654 2.9818,2.98181 7.17654,2.98181 4.19474,0 7.17655,-2.98181 h 0.0505 q 2.93125,-2.93127 2.93125,-7.17654 0,-4.19474 -2.93125,-7.17655 -3.03235,-2.93126 -7.22709,-2.93126 m 0,4.39689 q 2.37533,0 4.04312,1.66779 1.66779,1.66779 1.66779,4.04313 0,2.37534 -1.66779,4.04312 -1.66779,1.71833 -4.04312,1.71833 -2.42588,0 -4.09366,-1.71833 -1.61725,-1.66778 -1.61725,-4.04312 0,-2.37534 1.61725,-4.04313 1.66778,-1.66779 4.09366,-1.66779 m -11.42183,-5.76144 q 4.75068,-4.70014 11.42183,-4.70014 6.67116,0 11.42182,4.75068 4.75067,4.75066 4.75067,11.42182 0,6.72169 -4.75067,11.47236 -4.75066,4.70013 -11.42182,4.70013 -6.67115,0 -11.42183,-4.70013 -4.75066,-4.75067 -4.75066,-11.47236 0,-6.67116 4.70012,-11.42182 h 0.0505 v -0.0505 m -24.15766,5.50875 q 1.21294,2.88073 1.21294,6.26685 0,0.50539 -0.35377,0.85916 -0.35378,0.35377 -0.85917,0.35377 h -3.33557 l -0.40431,2.0721 3.13341,1.31401 0.65701,0.65701 q 0.20216,0.45485 0,0.9097 -1.1624,2.88073 -3.58826,5.30661 l -0.80863,0.30323 -0.85916,-0.30323 -2.37534,-2.37534 -1.76887,1.21294 1.31402,3.08288 q 0.20215,0.45485 0,0.9097 l -0.65701,0.657 q -2.88073,1.21294 -6.26684,1.21294 -0.50539,0 -0.85916,-0.35377 -0.35377,-0.35377 -0.35377,-0.85917 v -3.33557 l -2.07211,-0.35377 -1.26347,3.08288 -0.65701,0.657 q -0.45485,0.20216 -0.90971,0 -2.93126,-1.16239 -5.30659,-3.53772 -0.35377,-0.35378 -0.35377,-0.85917 0,-0.50539 0.35377,-0.85916 l 2.37533,-2.37534 -1.21294,-1.76887 -3.13341,1.31402 q -0.45486,0.20216 -0.90971,0 l -0.65701,-0.65701 q -1.21293,-2.88073 -1.21293,-6.26683 0,-0.5054 0.35377,-0.85917 0.35377,-0.35377 0.85916,-0.35377 h 3.33558 l 0.40432,-2.0721 -3.13343,-1.26348 -0.657,-0.65701 q -0.20216,-0.45485 0,-0.9097 1.16239,-2.93126 3.58827,-5.3066 0.35377,-0.35377 0.80862,-0.35377 0.50539,0 0.85916,0.35377 l 2.37534,2.37534 q 0.85916,-0.70755 1.76887,-1.21294 l -1.31402,-3.13342 q -0.20216,-0.45485 0,-0.9097 0.20216,-0.45486 0.65701,-0.65701 2.88072,-1.21294 6.26684,-1.21294 0.50539,0 0.85916,0.35377 0.35377,0.35378 0.35377,0.85917 v 3.33558 l 2.0721,0.40431 1.31402,-3.13342 q 0.15162,-0.45486 0.60647,-0.65701 0.45485,-0.20216 0.96024,0 1.86995,0.75808 3.58828,2.0721 l 1.66779,1.51617 q 0.35377,0.35378 0.35377,0.85917 l -0.35377,0.80862 -2.3248,2.37533 1.1624,1.76887 3.13341,-1.31402 q 0.45485,-0.20216 0.9097,0 l 0.65701,0.65701 m -14.95955,-1.56671 q -3.2345,0 -5.5593,2.27426 -2.27425,2.32479 -2.27425,5.5593 0,3.23449 2.27425,5.55928 2.3248,2.27426 5.5593,2.27426 3.23449,0 5.55929,-2.27426 2.27426,-2.32479 2.27426,-5.55928 0,-3.23451 -2.27426,-5.5593 -2.3248,-2.27426 -5.55929,-2.27426 m 0,3.94205 q 1.61724,0 2.77964,1.11186 1.1624,1.1624 1.1624,2.77965 0,1.61725 -1.1624,2.77964 -1.1624,1.16239 -2.77964,1.16239 -1.61725,0 -2.77965,-1.16239 -1.11186,-1.16239 -1.11186,-2.77964 0,-1.61725 1.11186,-2.77965 1.1624,-1.11186 2.77965,-1.11186 m 3.03234,50.38742 v 8.08625 h -8.08624 v -8.08625 h -4.04313 v -4.04312 l 8.08625,-8.08625 8.08625,8.08625 v 4.04312 h -4.04313 m -14.15092,4.04312 q 0.80861,0 1.41508,0.60647 0.60647,0.60647 0.60647,1.41509 v 6.0647 h 16.1725 v -6.01416 q 0,-0.85916 0.55592,-1.46563 0.60647,-0.60647 1.46564,-0.60647 h 4.04311 q 0.80863,0 1.4151,0.60647 0.60647,0.60647 0.60647,1.41509 v 12.12938 q 0,0.85917 -0.60647,1.46564 -0.60647,0.55593 -1.4151,0.55593 h -28.30185 q -0.85917,0 -1.46563,-0.55593 -0.55593,-0.60647 -0.55593,-1.46564 v -12.07884 q 0,-0.85916 0.55593,-1.46563 0.60646,-0.60647 1.46563,-0.60647 h 4.04313 m 58.11989,-8.5411 q -1.46563,-1.51617 -1.46563,-3.58827 0,-2.07209 1.46563,-3.53773 1.51616,-1.51617 3.58827,-1.51617 2.12264,0 3.58827,1.51617 h -0.0505 q 1.51617,1.51618 1.51617,3.53773 0,2.17318 -1.51617,3.63881 v -0.0505 q -1.46563,1.46564 -3.53773,1.46564 -2.12265,0 -3.58827,-1.46564 m 5.60983,3.4872 q 1.21294,0 2.12264,0.9097 0.9097,0.90971 0.9097,2.12265 v 13.14015 h 1.01079 q 1.21293,0 2.12264,0.9097 0.90969,0.9097 0.90969,2.12264 v 2.02157 l -0.30323,0.70754 -0.70754,0.30324 h -16.1725 q -0.40431,0 -0.70754,-0.30324 -0.30324,-0.30323 -0.30324,-0.70754 v -1.97103 q 0,-1.26348 0.85916,-2.12264 v -0.0505 q 0.90971,-0.9097 2.17319,-0.9097 h 1.01078 v -10.10798 h -3.03235 q -0.40431,0 -0.70754,-0.30323 -0.30324,-0.30324 -0.30324,-0.70755 v -4.04312 q 0,-0.40431 0.30324,-0.70755 0.30323,-0.30323 0.70754,-0.30323 h 10.10781 m 4.70013,51.85306 0.30324,0.70755 v 8.08625 l -0.30324,0.70755 q -0.30323,0.30322 -0.70754,0.30322 h -7.07548 v 5.05391 l -0.30323,0.70755 -0.70755,0.30323 h -4.04311 l -0.70755,-0.30323 -10.10781,-10.10781 q -0.30323,-0.30323 -0.30323,-0.70755 0,-0.40431 0.30323,-0.70754 l 10.10781,-10.10781 q 0.30323,-0.30323 0.70755,-0.30323 h 4.04311 q 0.40432,0 0.70755,0.30323 l 0.30323,0.70755 v 5.0539 h 7.07548 q 0.40431,0 0.70754,0.30323 m -0.70754,50.23581 q 0,-2.52696 -1.76887,-4.29582 -1.76887,-1.76886 -4.29582,-1.76886 -2.5775,0 -4.34635,1.76886 -1.71833,1.76886 -1.71833,4.29582 0,2.47641 1.71833,4.24528 1.76885,1.8194 4.34635,1.8194 2.52695,0 4.29582,-1.8194 1.76887,-1.76887 1.76887,-4.24528 m 7.53031,-59.0296 q 0.55593,0.60647 0.55593,1.46563 v 24.2082 q 0,0.85917 -0.55593,1.46564 -0.60647,0.55593 -1.46563,0.55593 h -10.10781 v -4.04313 h 8.08624 V 439.6833 h -8.08624 v -4.04313 h 10.10781 q 0.85916,0 1.46563,0.60647 m -1.46563,58.97906 q 0,4.04313 -2.3248,7.17654 l 0.0505,0.0505 5.10444,8.89488 0.15162,0.657 -0.50539,0.55593 -0.65701,0.15162 -4.75067,-1.26348 -1.26347,4.75067 -0.50539,0.50539 -0.65701,0.10108 -0.55593,-0.40432 -5.10444,-8.89486 -0.0505,-0.15162 -1.06132,0.0505 -1.11186,-0.0505 -0.10108,0.15162 -5.10444,8.89486 -0.55593,0.40432 -0.65701,-0.10108 -0.50539,-0.50539 -1.26347,-4.75067 -4.75068,1.26348 -0.65701,-0.15162 -0.50538,-0.55593 q -0.0505,-0.35377 0.15162,-0.657 l 5.10444,-8.89488 0.10108,-0.10108 q -2.27426,-3.08287 -2.27426,-7.126 0,-5.05391 3.43665,-8.59164 3.53774,-3.48719 8.69272,-3.48719 5.0539,0 8.59163,3.48719 3.53774,3.53773 3.53774,8.59164 m -45.48514,-45.4346 -0.30323,0.70755 -10.10781,10.10781 -0.70755,0.30323 h -4.04312 l -0.70755,-0.30323 -0.30323,-0.70755 v -5.05391 h -7.07547 q -0.40431,0 -0.70754,-0.30322 -0.30324,-0.30324 -0.30324,-0.70755 v -8.08625 q 0,-0.40432 0.30324,-0.70755 0.30323,-0.30323 0.70754,-0.30323 h 7.07547 v -5.0539 q 0,-0.40432 0.30323,-0.70755 0.30323,-0.30323 0.70755,-0.30323 h 4.04312 q 0.40432,0 0.70755,0.30323 l 10.10781,10.10781 0.30323,0.70754 m -19.20483,-10.1078 h -8.08625 v 20.21561 h 8.08625 v 4.04313 h -10.10781 q -0.85916,0 -1.46563,-0.55593 -0.55593,-0.60647 -0.55593,-1.46564 v -24.2082 q 0,-0.85916 0.55593,-1.46563 0.60647,-0.60647 1.46563,-0.60647 h 10.10781 v 4.04313 m 14.15093,55.5424 q 0,5.00337 -3.53773,8.54109 -1.61725,1.66779 -3.53774,2.5775 v 10.20888 l -0.25269,0.65701 -0.65701,0.2527 -0.65701,-0.20216 -3.48719,-3.4872 -3.48719,3.4872 -0.65701,0.20216 -0.65701,-0.2527 -0.25269,-0.65701 v -10.15834 q -1.97103,-0.96025 -3.63882,-2.62804 -3.43665,-3.53772 -3.43665,-8.54109 0,-5.05391 3.43665,-8.59164 3.53774,-3.48719 8.69272,-3.48719 5.0539,0 8.59164,3.48719 3.53773,3.53773 3.53773,8.59164 m -12.12937,-6.01414 q -2.57749,0 -4.34636,1.76886 -1.71833,1.76886 -1.71833,4.29582 0,2.47641 1.71833,4.24528 1.76887,1.8194 4.34636,1.8194 2.52695,0 4.29582,-1.8194 1.76886,-1.76887 1.76886,-4.24528 0,-2.52696 -1.76886,-4.29582 -1.76887,-1.76886 -4.29582,-1.76886 m 30.32342,48.51747 h 39.42046 q 0.80861,0 1.41508,0.60647 0.60647,0.60647 0.60647,1.41509 v 20.21561 q 0,0.85917 -0.60647,1.46564 -0.60647,0.55593 -1.41508,0.55593 H 716.7831 q -0.85916,0 -1.46563,-0.55593 -0.55593,-0.60647 -0.55593,-1.46564 v -20.16503 q 0,-0.85916 0.55593,-1.46563 0.60647,-0.60647 1.46563,-0.60647 m -9.70349,0.60647 q 0.60647,0.60647 0.60647,1.41509 v 20.21561 q 0,0.85917 -0.60647,1.46564 l -0.45485,0.35377 -0.96025,0.20216 h -39.42045 q -0.85916,0 -1.46563,-0.55593 -0.55593,-0.60647 -0.55593,-1.46564 v -20.16507 q 0,-0.85916 0.55593,-1.46563 0.60647,-0.60647 1.46563,-0.60647 h 39.42045 l 0.96025,0.25269 0.45485,0.35378 m 39.26883,13.29177 -0.80863,-0.85917 q -0.55592,0.75809 -1.51616,0.75809 -0.65701,0 -1.1624,-0.45485 -0.45485,-0.5054 -0.45485,-1.31402 0,-0.75809 0.50539,-1.21294 0.50539,-0.50539 1.21294,-0.50539 0.85916,0 1.46562,0.75809 l 0.80863,-0.85917 q -0.96025,-1.06131 -2.32479,-1.06131 -1.26348,0 -2.12264,0.80862 -0.85917,0.85916 -0.85917,2.12264 0,1.26348 0.85917,2.0721 0.80862,0.80863 2.12264,0.80863 1.314,0 2.27425,-1.06132 m 5.00337,-3.53774 v -1.11185 h -4.49798 v 1.11185 h 1.61725 v 4.54852 h 1.26348 v -4.54852 h 1.61725 m -65.54913,2.22372 h -1.4151 l 0.70755,-1.66779 0.70755,1.66779 m -0.10108,-3.33557 h -1.21294 l -2.47642,5.66037 h 1.36456 l 0.50539,-1.21294 h 2.37534 l 0.50539,1.21294 h 1.36454 l -2.42586,-5.66037 m 4.34635,3.84096 h 0.85916 l 1.26348,1.81941 h 1.51617 l -1.41509,-2.02157 q 1.06132,-0.40431 1.06132,-1.76886 0,-0.96025 -0.55593,-1.41509 -0.55593,-0.45485 -1.86995,-0.45485 h -2.12264 v 5.66037 h 1.26348 v -1.81941 m 0,-2.72911 h 0.9097 l 0.85917,0.15162 0.25269,0.60647 -0.25269,0.70754 -0.85917,0.20216 h -0.9097 v -1.66779 m 6.97439,0 h 1.61725 v -1.11185 h -4.49798 v 1.11185 h 1.61725 v 4.54852 h 1.26348 v -4.54852 m -23.19742,0.40431 0.20216,-0.40431 0.50539,-0.10108 q 0.75809,0 1.51616,0.55593 l 0.65701,-0.96023 -1.01078,-0.55593 -1.11185,-0.15162 q -0.9097,0 -1.46563,0.40431 -0.55593,0.45485 -0.55593,1.26347 0,0.80863 0.45485,1.1624 0.45485,0.40431 1.41509,0.60647 l 0.85917,0.30323 0.20215,0.40432 -0.20215,0.40431 -0.55593,0.15162 q -0.75809,0 -1.66779,-0.80863 l -0.75809,0.96024 q 1.06132,0.96025 2.42588,0.96025 l 1.46562,-0.45486 q 0.60647,-0.45485 0.60647,-1.21293 0,-0.75809 -0.45485,-1.1624 l -1.26347,-0.60647 -1.01078,-0.35377 -0.2527,-0.40432 m 3.53773,-1.51616 v 1.11185 h 1.61725 v 4.54852 h 1.26348 v -4.54852 h 1.61725 v -1.11185 h -4.49798 m 47.80993,4.04312 q 0,-0.75809 -0.45485,-1.1624 -0.45485,-0.40432 -1.26348,-0.60647 l -1.01078,-0.35377 -0.25269,-0.40432 0.20215,-0.40431 0.50539,-0.10108 q 0.75809,0 1.51617,0.55593 l 0.65701,-0.96023 q -0.45485,-0.35377 -1.01078,-0.55593 l -1.11186,-0.15162 q -0.9097,0 -1.46562,0.40431 -0.55593,0.45485 -0.55593,1.26347 0,0.80863 0.45485,1.1624 0.45485,0.40431 1.41508,0.60647 l 0.85917,0.30323 0.20215,0.40432 -0.20215,0.40431 -0.55593,0.15162 q -0.75809,0 -1.66778,-0.80863 l -0.75809,0.96024 q 1.06132,0.96025 2.42587,0.96025 0.9097,0 1.46563,-0.45486 0.60647,-0.45485 0.60647,-1.21293 m 7.6314,0.50539 v -4.54851 h -1.26347 v 5.66037 h 3.6388 v -1.11186 h -2.37533 m -2.52695,-3.43666 v -1.11185 h -4.04313 v 5.66037 h 4.14421 v -1.11186 h -2.88073 v -1.1624 h 2.52695 v -1.11186 h -2.52695 v -1.1624 h 2.77965 m 7.126,3.43666 v -1.1624 h 2.52695 v -1.11186 h -2.52695 v -1.1624 h 2.77965 v -1.11185 h -4.04313 v 5.66037 h 4.14421 v -1.11186 h -2.88069 m -82.27756,-317.0314 q 0,0.85916 -0.60647,1.46563 -0.60647,0.55593 -1.41509,0.55593 h -32.34498 q -0.85917,0 -1.46564,-0.55593 -0.55593,-0.60647 -0.55593,-1.46563 v -3.99258 q 0,-0.85916 0.55593,-1.46563 0.60647,-0.60647 1.46564,-0.60647 h 32.34498 q 0.80862,0 1.41509,0.60647 0.60647,0.60647 0.60647,1.41509 v 4.04312 m -0.60647,6.67116 q 0.60647,0.60647 0.60647,1.41509 v 4.04312 q 0,0.85916 -0.60647,1.46563 -0.60647,0.55593 -1.41509,0.55593 h -32.34498 q -0.85917,0 -1.46564,-0.55593 -0.55593,-0.60647 -0.55593,-1.46563 v -3.99258 q 0,-0.85916 0.55593,-1.46563 0.60647,-0.60647 1.46564,-0.60647 h 32.34498 q 0.80862,0 1.41509,0.60647 m -35.22571,19.05321 q -0.55593,-0.60647 -0.55593,-1.46563 v -3.99258 q 0,-0.85916 0.55593,-1.46563 0.60647,-0.60647 1.46564,-0.60647 h 32.34498 q 0.80862,0 1.41509,0.60647 0.60647,0.60647 0.60647,1.41509 v 4.04312 q 0,0.85916 -0.60647,1.46563 -0.60647,0.55593 -1.41509,0.55593 h -32.34498 q -0.85917,0 -1.46564,-0.55593 m -19.35645,-19.05321 q 0.60647,0.60647 0.60647,1.41509 v 4.04312 q 0,0.85916 -0.60647,1.46563 -0.60647,0.55593 -1.41509,0.55593 H 582.3493 q -0.85916,0 -1.46563,-0.55593 -0.55593,-0.60647 -0.55593,-1.46563 v -3.99258 q 0,-0.85916 0.55593,-1.46563 0.60647,-0.60647 1.46563,-0.60647 h 16.17249 q 0.80862,0 1.41509,0.60647 m 0.60647,-6.67116 q 0,0.85916 -0.60647,1.46563 -0.60647,0.55593 -1.41509,0.55593 H 582.3493 q -0.85916,0 -1.46563,-0.55593 -0.55593,-0.60647 -0.55593,-1.46563 v -3.99258 q 0,-0.85916 0.55593,-1.46563 0.60647,-0.60647 1.46563,-0.60647 h 16.17249 q 0.80862,0 1.41509,0.60647 0.60647,0.60647 0.60647,1.41509 v 4.04312 m -24.25874,0 q 0,0.85916 -0.60647,1.46563 -0.60647,0.55593 -1.41509,0.55593 h -4.04312 q -0.85916,0 -1.46563,-0.55593 -0.55593,-0.60647 -0.55593,-1.46563 v -3.99258 q 0,-0.85916 0.55593,-1.46563 0.60647,-0.60647 1.46563,-0.60647 h 4.04312 q 0.80862,0 1.41509,0.60647 0.60647,0.60647 0.60647,1.41509 v 4.04312 m 0,24.25874 q 0,0.85916 -0.60647,1.46563 -0.60647,0.55593 -1.41509,0.55593 h -4.04312 q -0.85916,0 -1.46563,-0.55593 -0.55593,-0.60647 -0.55593,-1.46563 v -3.99258 q 0,-0.85916 0.55593,-1.46563 0.60647,-0.60647 1.46563,-0.60647 h 4.04312 q 0.80862,0 1.41509,0.60647 0.60647,0.60647 0.60647,1.41509 v 4.04312 m 4.59906,1.46563 q -0.55593,-0.60647 -0.55593,-1.46563 v -3.99258 q 0,-0.85916 0.55593,-1.46563 0.60647,-0.60647 1.46563,-0.60647 h 16.17249 q 0.80862,0 1.41509,0.60647 0.60647,0.60647 0.60647,1.41509 v 4.04312 q 0,0.85916 -0.60647,1.46563 -0.60647,0.55593 -1.41509,0.55593 H 582.3493 q -0.85916,0 -1.46563,-0.55593 m -4.59906,-13.595 q 0,0.85916 -0.60647,1.46563 -0.60647,0.55593 -1.41509,0.55593 h -4.04312 q -0.85916,0 -1.46563,-0.55593 -0.55593,-0.60647 -0.55593,-1.46563 v -3.99258 q 0,-0.85916 0.55593,-1.46563 0.60647,-0.60647 1.46563,-0.60647 h 4.04312 q 0.80862,0 1.41509,0.60647 0.60647,0.60647 0.60647,1.41509 v 4.04312 m 13.64554,37.90428 q 3.53774,3.53774 3.53774,8.64218 0,1.86994 -0.45485,3.53773 l 1.31402,1.36456 0.30322,0.30323 0.35377,0.35377 4.95283,4.95282 q 1.61725,1.71832 1.66779,3.99258 v 0.2527 q -0.0505,2.27426 -1.66779,3.84097 -1.36455,1.41509 -3.18396,1.66779 l -0.80862,0.0505 -0.75809,-0.0505 q -1.8194,-0.2527 -3.28503,-1.61725 l -2.52695,-2.52696 v -0.0505 l -4.29583,-4.34636 0.40432,0.45485 -0.55593,-0.55593 -3.58827,0.45486 q -5.05391,0 -8.64218,-3.53773 -3.48719,-3.53773 -3.48719,-8.54109 0,-5.0539 3.48719,-8.64218 3.63881,-3.53773 8.64218,-3.53773 5.10444,0 8.59163,3.53773 m -0.60646,8.49056 q -0.0505,-3.28503 -2.3248,-5.55929 v -0.0505 q -2.3248,-2.27426 -5.66037,-2.27426 -3.33558,0 -5.71092,2.27426 l -0.0505,0.0505 q -2.27426,2.3248 -2.27426,5.71091 0,3.28504 2.32479,5.60983 2.3248,2.27425 5.60984,2.32479 h 0.10108 q 3.33557,0 5.60983,-2.32479 h 0.0505 q 2.3248,-2.32479 2.3248,-5.60983 v -0.15162 m 50.99389,0.35377 q 2.52694,1.06132 4.59905,3.03235 4.1442,3.99257 4.1442,9.70348 0,3.03235 -4.1442,5.10445 -4.09367,2.12264 -10.00673,2.12264 -5.86252,0 -10.00673,-2.12264 -4.09367,-2.0721 -4.1442,-5.10445 0,-5.71091 4.1442,-9.70348 2.0721,-1.97103 4.59905,-3.03235 -2.12263,-2.12263 -2.12263,-5.0539 0,-3.03234 2.22371,-5.15498 2.17318,-2.17318 5.3066,-2.17318 3.18396,0 5.35714,2.17318 2.22371,2.12264 2.22371,5.15498 0,2.93127 -2.17317,5.0539 m -90.31327,-62.9211 v 4.04312 q 0,0.85916 -0.60647,1.46563 -0.60647,0.55593 -1.41509,0.55593 h -4.04312 q -0.85916,0 -1.46563,-0.55593 -0.55593,-0.60647 -0.55593,-1.46563 v -3.99258 q 0,-0.85916 0.55593,-1.46563 0.60647,-0.60647 1.46563,-0.60647 h 4.04312 q 0.80862,0 1.41509,0.60647 0.60647,0.60647 0.60647,1.41509 m -12.12937,0 v 4.04312 q 0,0.85916 -0.60647,1.46563 -0.60647,0.55593 -1.41508,0.55593 h -4.04313 q -0.85916,0 -1.46563,-0.55593 -0.55593,-0.60647 -0.55593,-1.46563 v -3.99258 q 0,-0.85916 0.55593,-1.46563 0.60647,-0.60647 1.46563,-0.60647 h 4.04313 q 0.80861,0 1.41508,0.60647 0.60647,0.60647 0.60647,1.41509 m 6.06469,10.10781 h 4.04312 q 0.80862,0 1.41509,0.60647 0.60647,0.60647 0.60647,1.41509 v 4.04312 q 0,0.85916 -0.60647,1.46563 -0.60647,0.55593 -1.41509,0.55593 h -4.04312 q -0.85916,0 -1.46563,-0.55593 -0.55593,-0.60647 -0.55593,-1.46563 v -3.99258 q 0,-0.85916 0.55593,-1.46563 0.60647,-0.60647 1.46563,-0.60647 m -6.67116,0.60647 q 0.60647,0.60647 0.60647,1.41509 v 4.04312 q 0,0.85916 -0.60647,1.46563 -0.60647,0.55593 -1.41508,0.55593 h -4.04313 q -0.85916,0 -1.46563,-0.55593 -0.55593,-0.60647 -0.55593,-1.46563 v -3.99258 q 0,-0.85916 0.55593,-1.46563 0.60647,-0.60647 1.46563,-0.60647 h 4.04313 q 0.80861,0 1.41508,0.60647 m 12.73584,13.54446 v 4.04312 q 0,0.85916 -0.60647,1.46563 -0.60647,0.55593 -1.41509,0.55593 h -4.04312 q -0.85916,0 -1.46563,-0.55593 -0.55593,-0.60647 -0.55593,-1.46563 v -3.99258 q 0,-0.85916 0.55593,-1.46563 0.60647,-0.60647 1.46563,-0.60647 h 4.04312 q 0.80862,0 1.41509,0.60647 0.60647,0.60647 0.60647,1.41509 m -12.73584,-1.41509 q 0.60647,0.60647 0.60647,1.41509 v 4.04312 q 0,0.85916 -0.60647,1.46563 -0.60647,0.55593 -1.41508,0.55593 h -4.04313 q -0.85916,0 -1.46563,-0.55593 -0.55593,-0.60647 -0.55593,-1.46563 v -3.99258 q 0,-0.85916 0.55593,-1.46563 0.60647,-0.60647 1.46563,-0.60647 h 4.04313 q 0.80861,0 1.41508,0.60647 m -11.5229,-22.84365 v 4.04312 q 0,0.85916 -0.60647,1.46563 -0.60646,0.55593 -1.41508,0.55593 h -4.04313 q -0.85916,0 -1.46563,-0.55593 -0.55593,-0.60647 -0.55593,-1.46563 v -3.99258 q 0,-0.85916 0.55593,-1.46563 0.60647,-0.60647 1.46563,-0.60647 h 4.04313 q 0.80862,0 1.41508,0.60647 0.60647,0.60647 0.60647,1.41509 m -2.02155,10.10781 q 0.80862,0 1.41508,0.60647 0.60647,0.60647 0.60647,1.41509 v 4.04312 q 0,0.85916 -0.60647,1.46563 -0.60646,0.55593 -1.41508,0.55593 h -4.04313 q -0.85916,0 -1.46563,-0.55593 -0.55593,-0.60647 -0.55593,-1.46563 v -3.99258 q 0,-0.85916 0.55593,-1.46563 0.60647,-0.60647 1.46563,-0.60647 h 4.04313 m -25.21899,4.1442 -0.30323,0.70755 -12.12937,12.12936 -0.70755,0.30324 q -0.40431,0 -0.70754,-0.30324 -0.30324,-0.30322 -0.30324,-0.70754 v -24.25874 q 0,-0.40431 0.30324,-0.70754 0.30323,-0.30324 0.70754,-0.30324 0.40431,0 0.70755,0.30324 l 12.12937,12.12937 0.30323,0.70754 m 27.24054,10.00673 v 4.04312 q 0,0.85916 -0.60647,1.46563 -0.60646,0.55593 -1.41508,0.55593 h -4.04313 q -0.85916,0 -1.46563,-0.55593 -0.55593,-0.60647 -0.55593,-1.46563 v -3.99258 q 0,-0.85916 0.55593,-1.46563 0.60647,-0.60647 1.46563,-0.60647 h 4.04313 q 0.80862,0 1.41508,0.60647 0.60647,0.60647 0.60647,1.41509 m -0.65701,32.69876 -0.0505,0.0505 q -2.27425,2.3248 -2.27425,5.71091 0,3.28504 2.32479,5.60983 2.3248,2.27425 5.60984,2.32479 h 0.10108 q 3.33558,0 5.60983,-2.32479 h 0.0505 q 2.32479,-2.32479 2.32479,-5.60983 V 293.019 q -0.0505,-3.28503 -2.32479,-5.55929 v -0.0505 q -2.32479,-2.27426 -5.66037,-2.27426 -3.33558,0 -5.71092,2.27426 m -6.41845,5.76145 q 0,-5.0539 3.48719,-8.64218 3.63881,-3.53773 8.64218,-3.53773 5.10445,0 8.59163,3.53773 3.53774,3.53774 3.53774,8.64218 0,1.86994 -0.45485,3.53773 l 1.31401,1.36456 0.30324,0.30323 0.35377,0.35377 4.95282,4.95282 q 1.61725,1.71832 1.66779,3.99258 v 0.2527 q -0.0505,2.27426 -1.66779,3.84097 -1.36455,1.41509 -3.18395,1.66779 l -0.80863,0.0505 -0.75808,-0.0505 q -1.81941,-0.2527 -3.28504,-1.61725 l -2.52696,-2.52696 v -0.0505 l -4.29581,-4.34636 0.40431,0.45485 -0.55593,-0.55593 -3.58827,0.45486 q -5.05391,0 -8.64218,-3.53773 -3.48719,-3.53773 -3.48719,-8.54109 m 16.22303,1.06132 v 3.03234 h -8.08625 v -3.03242 h 8.08625 m -8.08625,-4.04312 h 8.08625 v 3.03233 h -8.08625 v -3.03233 m -31.94067,23.29849 -0.75809,-0.0505 q -1.8194,-0.2527 -3.28504,-1.61725 l -6.82276,-6.92386 0.40431,0.45485 -0.55593,-0.55593 -3.58828,0.45486 q -5.05389,0 -8.64217,-3.53773 -3.48719,-3.53773 -3.48719,-8.54109 0,-5.0539 3.48719,-8.64218 3.63882,-3.53773 8.64217,-3.53773 5.10445,0 8.59165,3.53773 3.53772,3.53774 3.53772,8.64218 0,1.86994 -0.45485,3.53773 l 1.31402,1.36456 0.30323,0.30323 0.35378,0.35377 4.95283,4.95282 q 1.61725,1.71832 1.66779,3.99258 v 0.2527 q -0.0505,2.27426 -1.66779,3.84097 -1.36456,1.41509 -3.18396,1.66779 l -0.80863,0.0505 m 47.05185,26.12867 q 0,1.71833 -1.21294,2.88073 -1.1624,1.1624 -2.83019,1.1624 v 8.08624 h 10.10781 q 0.80862,0 1.41509,0.60647 0.60647,0.60647 0.60647,1.4151 v 10.1078 h -32.34498 v -10.05727 q 0,-0.85916 0.55593,-1.46563 0.60647,-0.60647 1.46563,-0.60647 h 10.10781 v -8.08624 q -1.71833,0 -2.88073,-1.1624 -1.1624,-1.21294 -1.1624,-2.88073 v -4.04311 q 0,-1.66779 1.1624,-2.83019 1.21294,-1.21294 2.88073,-1.21294 h 8.08624 q 1.66779,0 2.83019,1.21294 1.21294,1.21294 1.21294,2.83019 v 4.04311 m 4.04312,16.1725 h -4.04312 v 4.04313 h 4.04312 v -4.04313 m 28.40294,6.06469 -0.45485,-10.2089 -5.71091,-8.54109 9.70349,-3.58828 6.51953,-7.98516 6.41847,7.98516 9.70349,3.58828 -5.71091,8.54109 -0.55592,10.2089 -9.85513,-2.67857 -10.05726,2.67857 m -74.89884,-20.21562 v 10.1078 q 0,1.71833 -1.21294,2.88073 -1.1624,1.1624 -2.83019,1.1624 h -8.08624 v 4.04313 h 6.06468 q 0.80862,0 1.41509,0.60646 0.60647,0.60647 0.60647,1.4151 v 2.02155 h -24.25874 v -1.97101 q 0,-0.85917 0.55593,-1.46564 0.60647,-0.60646 1.46563,-0.60646 h 6.06468 v -4.04313 h -8.08624 q -1.71833,0 -2.88073,-1.1624 -1.1624,-1.21294 -1.1624,-2.88073 v -10.05727 q 0,-0.85916 0.55593,-1.46563 0.60647,-0.60647 1.46564,-0.60647 h 4.04312 v -4.04311 h 20.21562 v 4.04311 h 4.04312 q 0.80863,0 1.4151,0.60647 0.60647,0.60647 0.60647,1.4151 m -4.04313,2.02156 h -2.02156 v 8.08624 h 2.02156 v -8.08624 m 37.34835,47.80993 -0.40431,0.30324 q -0.55593,0.60647 -0.55593,1.46563 v 9.04649 q 0,0.85916 0.55593,1.46563 l 0.40431,0.30324 1.01078,0.2527 h 1.06132 q 0.80863,0 1.4151,-0.55594 0.60646,-0.60647 0.60646,-1.46563 v -9.09703 q 0,-0.80862 -0.60646,-1.41509 -0.60647,-0.60647 -1.4151,-0.60647 h -1.06132 q -0.55593,0 -1.01078,0.30323 m 0.60647,-8.13678 q 0.96024,-0.45485 1.97103,0 h 0.0505 q 0.85917,0.35377 1.31401,1.31402 l 13.89824,24.96628 q 0.45485,0.96024 0.40431,2.02157 v 0.0505 q -0.15162,1.1624 -0.9097,1.86995 h 0.0505 q -0.80863,0.85917 -1.92049,0.85917 h -27.79646 q -1.1624,0 -1.92049,-0.90971 -0.70755,-0.75808 -0.85916,-1.81941 -0.15162,-1.06132 0.35377,-2.0721 h 0.0505 l 13.89824,-24.96628 v -0.0505 q 0.50539,-0.90971 1.36455,-1.26348 h 0.0505 m 0.96024,22.99527 q -1.06132,0 -1.8194,0.75809 -0.70755,0.70755 -0.70755,1.76886 0,1.01078 0.70755,1.76886 0.75808,0.75809 1.8194,0.75809 1.06132,0 1.76887,-0.75809 v 0.0505 q 0.75808,-0.75808 0.75808,-1.8194 0,-1.01078 -0.75808,-1.76886 h 0.0505 q -0.70755,-0.75809 -1.81941,-0.75809 m 39.92584,-24.25875 h 5.00337 v 4.04312 h -2.98181 v 24.25875 h 2.98181 v 4.04313 h -5.00337 q -0.85917,0 -1.46563,-0.55593 -0.55593,-0.60647 -0.55593,-1.46564 v -28.25133 q 0,-0.85916 0.55593,-1.46563 0.60646,-0.60647 1.46563,-0.60647 m 63.67919,-47.35508 q 2.77965,2.52696 3.2345,6.2163 v 0.10108 0.0505 1.46563 l -0.10108,1.1624 9.04649,8.94541 q 1.71833,1.51617 1.92049,3.73989 l 0.0505,0.9097 q 0,2.83019 -1.92049,4.70013 l -0.0505,0.0505 q -1.76887,1.8194 -4.75067,1.8194 -2.67857,0 -4.70013,-1.8194 v -0.0505 l -6.01415,-5.96361 -0.15161,-0.40431 -2.98181,-2.83019 -2.67856,-0.15161 0.10108,0.0505 q -3.53774,-0.55593 -6.01415,-2.93125 v -0.0505 q -3.58828,-3.73989 -3.13343,-8.28841 0.0505,-1.46563 0.60647,-2.93126 0.10108,-0.30323 0.35378,-0.45485 l 0.50539,-0.10108 0.40431,0.2527 5.76145,5.76144 1.11186,0.60647 1.01078,-0.55593 v -0.0505 l 2.42587,-2.52695 q 0.75809,-0.70755 0.40431,-1.51617 l -0.45485,-0.70755 -5.76144,-5.50875 -0.20216,-0.40431 q -0.10108,-0.30324 0.0505,-0.50539 0.10108,-0.2527 0.35377,-0.35378 0.65701,-0.35377 1.26348,-0.55593 h 0.0505 l 4.8012,-0.15161 q 3.13343,0.55593 5.50876,2.9818 h -0.0505 m 9.24865,21.17586 q -1.61725,-1.36456 -3.28504,0 v 0.0505 l -0.45486,0.85916 -0.0505,0.10108 -0.10107,0.60647 q 0,0.85916 0.60647,1.61725 0.75808,0.60647 1.66779,0.60647 0.96024,0 1.61725,-0.60647 0.75808,-0.75809 0.75808,-1.61725 l -0.10108,-0.65701 -0.60646,-0.9097 -0.0505,-0.0505 m -59.38338,43.81734 q 0.60647,-0.60647 0.60647,-1.46563 0,-0.80863 -0.60647,-1.4151 h 0.0505 q -0.60647,-0.60645 -1.46563,-0.60645 -0.80863,0 -1.4151,0.60645 -0.60646,0.60647 -0.60646,1.4151 0,0.85916 0.60646,1.46563 0.55593,0.55593 1.4151,0.55593 0.85916,0 1.41509,-0.55593 m -5.91306,-14.15093 q 0.60647,-0.70754 1.41509,-0.85916 l 14.20147,-2.72911 v 30.32343 l -14.20147,2.72911 q -0.80862,0.15162 -1.41509,-0.30323 -0.55593,-0.50539 -0.55593,-1.36456 v -26.22977 q 0,-0.85916 0.55593,-1.56671 m 61.10169,4.59906 v 4.04312 l -8.08624,8.08625 -8.08624,-8.08625 v -4.04312 h 4.04311 v -8.08625 h 8.08626 v 8.08625 h 4.04311 m -16.17248,10.1078 v 6.0647 h 16.17248 v -6.01416 q 0,-0.85916 0.55593,-1.46563 0.60647,-0.60647 1.46564,-0.60647 h 4.04312 q 0.80863,0 1.4151,0.60647 0.60647,0.60647 0.60647,1.41509 v 12.12938 q 0,0.85917 -0.60647,1.46564 -0.60647,0.55593 -1.4151,0.55593 h -28.30167 q -0.85917,0 -1.46564,-0.55593 -0.55593,-0.60647 -0.55593,-1.46564 v -12.07884 q 0,-0.85916 0.55593,-1.46563 0.60647,-0.60647 1.46564,-0.60647 h 4.04312 q 0.80863,0 1.4151,0.60647 0.60647,0.60647 0.60647,1.41509 M 481.32176,231.56353 q 0.40431,0 0.70754,0.30324 l 0.30324,0.70754 v 24.25874 l -0.30324,0.70754 -0.70754,0.30324 q -0.40432,0 -0.70755,-0.30324 l -12.12937,-12.12936 q -0.30324,-0.30323 -0.30324,-0.70755 0,-0.40431 0.30324,-0.70754 l 12.12937,-12.12937 q 0.30323,-0.30324 0.70755,-0.30324 m -35.68057,10.41104 0.30324,0.70755 -0.30324,0.70755 -0.70754,0.30323 h -24.25874 l -0.70754,-0.30323 q -0.30324,-0.30324 -0.30324,-0.70755 0,-0.40431 0.30324,-0.70755 l 12.12936,-12.12937 q 0.30323,-0.30323 0.70755,-0.30323 0.40431,0 0.70754,0.30323 l 12.12937,12.12937 m -25.97706,4.75067 q 0,-0.40431 0.30324,-0.70755 0.30322,-0.30322 0.70754,-0.30322 h 24.25874 q 0.40431,0 0.70754,0.30322 l 0.30324,0.70755 -0.30324,0.70755 -12.12937,12.12937 -0.70754,0.30323 -0.70755,-0.30323 -12.12936,-12.12937 q -0.30324,-0.30324 -0.30324,-0.70755 m 18.04244,46.29376 q -0.0505,-3.28503 -2.3248,-5.55929 v -0.0505 q -2.3248,-2.27426 -5.66037,-2.27426 -3.33558,0 -5.71091,2.27426 l -0.0505,0.0505 q -2.27426,2.3248 -2.27426,5.71091 0,3.28504 2.3248,5.60983 2.32479,2.27425 5.60983,2.32479 h 0.10108 q 3.33557,0 5.60983,-2.32479 h 0.0505 q 2.3248,-2.32479 2.3248,-5.60983 V 293.019 m 0.60647,-8.49056 q 3.53773,3.53774 3.53773,8.64218 0,1.86994 -0.45485,3.53773 l 1.31402,1.36456 0.30323,0.30323 0.35377,0.35377 4.95282,4.95282 q 1.61726,1.71832 1.66779,3.99258 v 0.2527 q -0.0505,2.27426 -1.66779,3.84097 -1.36455,1.41509 -3.18396,1.66779 l -0.80862,0.0505 -0.75809,-0.0505 q -1.8194,-0.2527 -3.28503,-1.61725 l -2.52695,-2.52696 v -0.0505 l -4.29583,-4.34636 0.40432,0.45485 -0.55593,-0.55593 -3.58827,0.45486 q -5.05391,0 -8.64218,-3.53773 -3.48719,-3.53773 -3.48719,-8.54109 0,-5.0539 3.48719,-8.64218 3.63881,-3.53773 8.64218,-3.53773 5.10444,0 8.59164,3.53773 m -4.49798,10.71428 h -8.08625 v -4.04312 h 8.08625 v 4.04312 m 44.47436,-6.06468 h 4.04312 v 2.02156 h 2.02156 v 4.04312 h -2.02156 v 2.02156 h -4.04312 v -2.02156 h -2.02156 v -4.04312 h 2.02156 v -2.02156 m -3.73989,-1.76887 -0.0505,0.0505 q -2.27426,2.3248 -2.27426,5.71091 0,3.28504 2.3248,5.60983 2.3248,2.27425 5.60983,2.32479 h 0.10107 q 3.33558,0 5.60984,-2.32479 h 0.0505 q 2.3248,-2.32479 2.3248,-5.60983 V 293.019 q -0.0505,-3.28503 -2.3248,-5.55929 v -0.0505 q -2.3248,-2.27426 -5.66038,-2.27426 -3.33556,0 -5.7109,2.27426 m -75.15156,-49.88204 v 2.02157 l -16.17248,16.17249 -16.1725,-16.17249 v -2.02157 q 0,-0.85916 0.55593,-1.46563 0.60647,-0.55593 1.46563,-0.55593 h 28.25132 q 0.85916,0 1.46563,0.55593 0.60647,0.60647 0.60647,1.46563 m -52.15628,17.63813 q -0.60647,0.55593 -1.46563,0.55593 h -28.25133 q -0.85917,0 -1.46564,-0.55593 -0.55592,-0.60646 -0.55592,-1.46563 v -2.02156 l 16.17249,-16.1725 16.1725,16.1725 v 2.02156 q 0,0.85917 -0.60647,1.46563 m 21.83286,37.95482 h 10.10781 v -10.05727 q 0,-0.85917 0.55593,-1.46563 0.60647,-0.60647 1.46563,-0.60647 h 4.04313 q 0.80861,0 1.41508,0.60647 0.60647,0.60646 0.60647,1.41509 v 10.10781 h 10.10781 q 0.80862,0 1.41509,0.60647 0.60647,0.60646 0.60647,1.41509 v 4.04312 q 0,0.85916 -0.60647,1.46563 -0.60647,0.55593 -1.41509,0.55593 H 387.2686 v 10.10781 q 0,0.85916 -0.60647,1.46563 -0.60647,0.55593 -1.41508,0.55593 h -4.04313 q -0.85916,0 -1.46563,-0.55593 -0.55593,-0.60647 -0.55593,-1.46563 v -10.10781 h -10.10781 q -0.85916,0 -1.46563,-0.55593 -0.55593,-0.60647 -0.55593,-1.46563 v -3.99258 q 0,-0.85917 0.55593,-1.46563 0.60647,-0.60647 1.46563,-0.60647 m -20.82208,0.60647 q 0.60647,0.60646 0.60647,1.41509 v 4.04312 q 0,0.85916 -0.60647,1.46563 -0.60647,0.55593 -1.41509,0.55593 h -28.30187 q -0.85916,0 -1.46563,-0.55593 -0.55593,-0.60647 -0.55593,-1.46563 v -3.99258 q 0,-0.85917 0.55593,-1.46563 0.60647,-0.60647 1.46563,-0.60647 h 28.30187 q 0.80862,0 1.41509,0.60647 m 43.1098,62.06193 v 4.04313 h 4.04312 v -4.04313 h -4.04312 m -16.1725,-16.1725 h 12.12937 v 12.12937 h 12.12937 v 12.12937 H 363.0604 v -16.17248 h 12.12937 v -8.08626 m 8.08625,4.04313 h -4.04312 v 4.04313 h 4.04312 v -4.04313 m -38.46021,-11.16917 v 4.04313 h -4.04312 v -4.04313 H 324.6002 v 14.15093 h 24.25874 v 18.19405 q 0,0.85917 -0.60647,1.46564 -0.60647,0.55593 -1.41509,0.55593 h -28.30187 q -0.85916,0 -1.46563,-0.55593 -0.55593,-0.60647 -0.55593,-1.46564 v -18.19405 h 4.04312 v -14.15093 q 0,-1.66779 1.1624,-2.83019 1.21294,-1.21293 2.88073,-1.21293 h 16.17249 q 1.66779,0 2.83018,1.21293 1.21294,1.21294 1.21294,2.83019 m -4.04312,7.07546 v -2.98179 h 4.04312 v 2.98179 h -4.04312 m -4.04312,19.20484 v -4.04312 h -8.08625 v 4.04312 h 2.02156 v 4.04312 h 4.04313 v -4.04312 h 2.02156 m 30.37396,-2.9818 h 4.04312 v -4.04313 h -4.04312 v 4.04313 m 1.66779,29.16103 q 0.40431,-0.80863 1.21294,-1.01078 l 4.90228,-1.31402 -0.20216,-0.9097 q -0.25269,-0.85917 0.15162,-1.56671 0.40431,-0.75809 1.26347,-0.96025 l 5.86254,-1.56671 q 0.75808,-0.20215 1.51617,0.2527 0.70755,0.35377 0.9097,1.1624 l 0.2527,0.96024 4.90228,-1.26348 q 0.75809,-0.25269 1.56671,0.20216 0.70755,0.40431 0.90971,1.21294 l 1.51617,5.76144 -23.39958,6.26685 -1.51617,-5.71092 q -0.20216,-0.85916 0.15162,-1.51616 m -31.99121,-0.75809 h 5.0539 q 0.80862,0 1.41509,0.60647 0.60647,0.60646 0.60647,1.41509 v 5.96361 h -24.25874 v -5.91307 q 0,-0.85917 0.55593,-1.46563 0.60647,-0.60647 1.46563,-0.60647 h 5.05391 v -0.96024 q 0,-0.85916 0.55593,-1.46563 0.60646,-0.60647 1.46563,-0.60647 h 6.06469 q 0.80862,0 1.41509,0.60647 0.60647,0.60647 0.60647,1.41509 v 1.01078 m 5.0539,32.345 h -20.21562 q -0.85916,0 -1.46563,-0.55593 -0.55593,-0.60647 -0.55593,-1.46564 v -20.3167 h 24.25874 v 20.3167 q 0,0.85917 -0.60647,1.46564 -0.60647,0.55593 -1.41509,0.55593 m 28.30186,-2.02157 v -20.3167 h 24.25874 v 20.3167 q 0,0.85917 -0.60647,1.46564 -0.60647,0.55593 -1.41509,0.55593 h -20.21561 q -0.85917,0 -1.46564,-0.55593 -0.55593,-0.60647 -0.55593,-1.46564 m 103.0491,-70.85574 h -2.02156 v 8.08624 h 2.02156 v -8.08624 m -32.95145,-8.49056 q 0.60647,0.60647 0.60647,1.4151 v 11.11859 h 8.08624 q 0.80863,0 1.4151,0.60646 0.60647,0.60647 0.60647,1.4151 v 11.11859 q 0,0.85916 -0.60647,1.46562 -0.60647,0.55593 -1.4151,0.55593 h -30.32342 q -0.85916,0 -1.46563,-0.55593 -0.55593,-0.60646 -0.55593,-1.46562 v -11.06805 q 0,-0.85917 0.55593,-1.46564 0.60647,-0.60646 1.46563,-0.60646 h 7.07547 v -11.06805 q 0,-0.85917 0.55593,-1.46564 0.60646,-0.60647 1.46563,-0.60647 h 11.11859 q 0.80862,0 1.41509,0.60647 m 5.66037,21.32748 q 0,-0.75809 -0.45485,-1.31402 -0.45485,-0.55593 -1.31402,-0.70755 l 1.46563,-1.61725 v -1.11186 h -4.34635 v 1.36456 h 2.22372 l -1.36455,1.56671 v 1.11186 l 0.96024,-0.15162 q 0.60646,0 0.96023,0.2527 0.35378,0.25269 0.35378,0.70754 l -0.30324,0.65701 -0.80861,0.20216 q -0.75809,0 -1.76887,-0.70755 l -0.65701,1.26348 q 1.21294,0.80862 2.37534,0.80862 1.16239,0 1.92047,-0.60647 0.75809,-0.60646 0.75809,-1.71832 m -19.40699,-2.62804 q 0,-1.01078 -0.70755,-1.61725 -0.657,-0.50539 -1.56671,-0.50539 -0.9097,0 -1.46563,0.40431 -0.60647,0.35378 -1.11186,1.11186 l 1.26348,0.75809 q 0.60646,-0.96024 1.21293,-0.96024 l 0.60647,0.20215 0.2527,0.60647 -0.30324,0.75809 -0.85916,0.96024 -2.02156,2.07211 v 1.16239 h 4.90229 v -1.41509 h -2.77965 l 1.26347,-1.26348 1.01079,-1.26347 0.30323,-1.01079 m 5.25607,-14.25201 v 1.36456 h 1.46562 v 5.71091 h 1.56671 v -7.07547 h -3.03233 m 4.44742,45.08083 q 0.60647,0.60646 0.60647,1.41509 v 15.16171 q 0,0.85917 -0.60647,1.46564 -0.60646,0.55593 -1.41509,0.55593 h -4.04312 q -0.85916,0 -1.46563,-0.55593 -0.55593,-0.60647 -0.55593,-1.46564 v -15.11117 q 0,-0.85917 0.55593,-1.46563 0.60647,-0.60646 1.46563,-0.60646 h 4.04312 q 0.80863,0 1.41509,0.60646 m -7.47977,25.67384 q 0,-1.66779 1.1624,-2.83018 1.21294,-1.21294 2.88072,-1.21294 1.71833,0 2.88072,1.21294 h -0.0505 q 1.21293,1.21293 1.21293,2.83018 0,1.71833 -1.21293,2.93127 v -0.0505 q -1.1624,1.1624 -2.83019,1.1624 -1.71832,0 -2.88072,-1.1624 -1.1624,-1.21294 -1.1624,-2.88073 m 52.91437,-16.32412 q -0.35377,0.30324 -0.85916,0.30324 h -6.41846 l -0.60647,-0.20216 -0.45485,-0.45485 -0.10108,-0.75809 q 0.40432,-4.64959 3.28504,-7.22708 2.83018,-2.62803 7.126,-2.62803 4.29583,0 7.02493,2.32479 2.77965,2.47642 2.77965,6.77224 0,2.0721 -0.55593,3.03234 l -0.55593,1.06132 h 0.0505 l -0.90971,1.36455 -0.0505,0.0505 -0.80862,0.9097 v 0.0505 l -1.86994,1.81941 -0.75808,0.85916 h -0.30324 v 0.0505 h 0.30324 l -0.20216,0.2527 -0.10108,0.85916 v 0.60647 0.10108 l -0.35377,0.80862 -0.90971,0.30325 h -6.16576 l -0.85917,-0.30325 q -0.35377,-0.35377 -0.40431,-0.80862 v -2.83019 h 0.15162 q 0.10107,-0.9097 0.40431,-1.46563 0.45485,-0.96025 2.02156,-2.62803 l 2.72911,-2.72911 0.2527,-1.11186 -0.35378,-1.11186 q -0.25269,-0.35377 -0.70754,-0.30323 -0.45485,0 -0.80863,0.40431 v -0.0505 q -0.45485,0.70755 -0.55593,1.86995 l -0.45485,0.80862 m 2.0721,12.281 q 1.92049,0 3.28504,1.26348 1.36456,1.31401 1.36456,3.23449 0,1.92049 -1.36456,3.28504 -1.36455,1.31402 -3.28504,1.31402 -1.8194,0 -3.13342,-1.31402 -1.31402,-1.31402 -1.31402,-3.28504 0,-1.92048 1.31402,-3.23449 1.31402,-1.26348 3.13342,-1.26348 m 3.03235,34.97302 q 0.60647,0.60647 0.60647,1.41509 v 20.21561 q 0,0.85917 -0.60647,1.46564 -0.60647,0.55593 -1.4151,0.55593 h -4.04312 q -0.85917,0 -1.46564,-0.55593 -0.55593,-0.60647 -0.55593,-1.46564 v -20.16507 q 0,-0.85916 0.55593,-1.46563 0.60647,-0.60647 1.46564,-0.60647 h 4.04312 q 0.80863,0 1.4151,0.60647 m -17.58759,23.65227 q -0.85917,0 -1.46564,-0.55593 -0.55593,-0.60647 -0.55593,-1.46564 v -12.07883 q 0,-0.85916 0.55593,-1.46563 0.60647,-0.60647 1.46564,-0.60647 h 4.04312 q 0.80863,0 1.4151,0.60647 0.60647,0.60647 0.60647,1.4151 v 12.12936 q 0,0.85917 -0.60647,1.46564 -0.60647,0.55593 -1.4151,0.55593 h -4.04312 m -44.47436,-14.15093 v 12.12936 q 0,0.85917 -0.60647,1.46564 -0.60646,0.55593 -1.41509,0.55593 h -4.04312 q -0.85916,0 -1.46563,-0.55593 -0.55593,-0.60647 -0.55593,-1.46564 v -12.07883 q 0,-0.85916 0.55593,-1.46563 0.60647,-0.60647 1.46563,-0.60647 h 4.04312 q 0.80863,0 1.41509,0.60647 0.60647,0.60647 0.60647,1.4151 m 11.67452,42.95818 -1.81941,2.17318 2.83019,10.56265 h 8.59164 q 1.21294,0 2.12264,0.90971 0.9097,0.9097 0.9097,2.12264 v 6.92384 l -0.30323,0.70755 -0.70755,0.30324 h -28.30186 l -0.70754,-0.30324 q -0.30324,-0.30323 -0.30324,-0.70755 v -6.8733 q 0,-1.26348 0.85917,-2.12264 v -0.0505 q 0.90969,-0.90971 2.17317,-0.90971 h 9.40027 l -2.42588,-8.99594 q -1.36455,-0.20216 -2.72911,-0.96024 -2.67857,-1.56672 -3.4872,-4.59906 -0.80862,-2.9818 0.70755,-5.76145 1.66779,-2.67857 4.70014,-3.48719 3.03234,-0.80863 5.7109,0.70754 2.72911,1.61725 3.53774,4.59906 0.80862,3.03234 -0.75809,5.76145 m 48.06263,-10.36051 q 2.77965,-1.51617 5.81198,-0.70754 3.03235,0.80862 4.59906,3.48719 1.61725,2.77965 0.80863,5.76145 -0.80863,3.03234 -3.58828,4.59906 -1.26348,0.75808 -2.62802,0.96024 l -2.37534,8.99594 h 9.4508 q 1.21294,0 2.12264,0.90971 0.90971,0.9097 0.90971,2.12264 v 6.92384 l -0.30324,0.70755 q -0.30323,0.30324 -0.70755,0.30324 H 470.2032 l -0.70755,-0.30324 q -0.30323,-0.30323 -0.30323,-0.70755 v -6.8733 q 0,-1.26348 0.85916,-2.12264 v -0.0505 q 0.9097,-0.90971 2.17318,-0.90971 h 8.49056 l 2.83019,-10.56265 q -1.11186,-0.85917 -1.92049,-2.17318 -1.46563,-2.72911 -0.65701,-5.76145 0.80863,-2.98181 3.43666,-4.59906 m -90.16164,-46.29376 0.85916,0.75809 v 0.0505 q 4.90228,4.90229 4.90228,11.87667 0,6.97439 -4.90228,11.82614 l -0.0505,0.0505 q -4.85175,4.90228 -11.82613,4.90228 -6.9744,0 -11.87668,-4.90228 -4.90229,-4.90229 -4.90229,-11.87668 0,-6.82276 4.70013,-11.67451 l 0.20216,-0.2527 0.80863,-0.70755 q 0.30323,-0.25269 0.75808,-0.20215 0.40432,0 0.65701,0.35377 l 2.57748,3.08288 0.2527,0.70755 -0.35377,0.70755 -0.40432,0.35377 -0.15161,0.15162 q -2.9818,3.13341 -2.9818,7.47977 0,4.44744 3.13341,7.58086 3.13343,3.13342 7.58087,3.13342 4.34635,0 7.42923,-2.98181 l 0.15162,-0.15161 0.15162,-0.15162 q 2.9818,-3.08288 2.9818,-7.42924 0,-4.44744 -3.13342,-7.58085 h -0.0505 l -0.45485,-0.45485 -0.35378,-0.70755 q 0,-0.40431 0.2527,-0.70755 l 2.62803,-3.08288 q 0.2527,-0.35377 0.70755,-0.35377 l 0.70755,0.20215 m -8.33895,-4.19474 0.30323,0.70755 v 17.18328 l -0.30323,0.70754 -0.70754,0.30324 h -4.04313 l -0.70754,-0.30324 q -0.30324,-0.30323 -0.30324,-0.70754 v -17.18328 q 0,-0.40432 0.30324,-0.70755 0.30323,-0.30323 0.70754,-0.30323 h 4.04313 q 0.4043,0 0.70754,0.30323 m -42.09902,-0.30323 q 0.85917,0 1.46563,0.60646 0.55593,0.60647 0.55593,1.46564 v 28.25132 q 0,0.85917 -0.55593,1.46564 -0.60646,0.55593 -1.46563,0.55593 h -2.02156 l -16.17249,-16.1725 16.17249,-16.17249 h 2.02156 m -2.17318,48.51747 q 2.98181,0 5.10445,2.07211 2.12264,2.12264 2.12264,5.20552 0,2.9818 -2.12264,5.10444 -2.12264,2.12264 -5.10445,2.12264 -3.03233,0 -5.15498,-2.12264 l -0.55593,-0.60647 -7.07547,4.90229 0.15162,1.46564 -0.2527,1.92047 7.12601,4.54852 0.60647,-0.70755 q 2.12265,-2.12264 5.15498,-2.12264 2.98181,0 5.10445,2.12264 2.12264,2.12264 2.12264,5.15499 0,3.03233 -2.12264,5.15497 -2.12264,2.12265 -5.10445,2.12265 -3.03233,0 -5.15498,-2.12265 -2.0721,-2.12264 -2.0721,-5.15497 l 0.10108,-1.06132 -7.58085,-4.80122 -0.10108,0.10108 q -2.12264,2.12264 -5.10445,2.12264 -3.03234,0 -5.15498,-2.12264 -2.0721,-2.12264 -2.0721,-5.15497 0,-3.03235 2.0721,-5.15499 2.12264,-2.12264 5.15498,-2.12264 2.98181,0 5.10445,2.12264 l 0.40431,0.40431 7.27762,-4.95282 -0.10108,-1.1624 q 0,-3.08288 2.0721,-5.20552 2.12265,-2.07211 5.15498,-2.07211 m 26.48246,35.32679 v -6.8733 q 0,-1.26348 0.85916,-2.12264 v -0.0505 q 0.90971,-0.90971 2.17318,-0.90971 h 9.04649 v -9.80457 q -1.26348,-0.55593 -2.37534,-1.61725 -2.17318,-2.22372 -2.17318,-5.35714 0,-3.13341 2.17318,-5.35713 2.27426,-2.22372 5.40769,-2.22372 3.13341,0 5.35713,2.22372 2.22372,2.22372 2.22372,5.35713 0,3.13342 -2.22372,5.35714 -1.06132,1.06132 -2.3248,1.61725 v 9.80457 h 9.14757 q 1.21294,0 2.12264,0.90971 0.9097,0.9097 0.9097,2.12264 v 6.92384 l -0.30323,0.70755 -0.70755,0.30324 h -28.30197 l -0.70755,-0.30324 q -0.30323,-0.30323 -0.30323,-0.70755 m -31.99121,28.50403 v -2.07211 h -8.18733 v 2.5775 h 4.19474 l -2.57749,3.03233 v 2.22372 l 1.76887,-0.40431 q 1.21294,0 1.86994,0.50539 0.65701,0.50539 0.65701,1.31402 0,0.85916 -0.55593,1.31401 -0.60647,0.40432 -1.51617,0.40432 -1.46563,0 -3.38612,-1.31402 l -1.21293,2.37534 q 2.27425,1.56671 4.49797,1.56671 2.22372,0 3.63882,-1.21294 1.46563,-1.21294 1.46563,-3.28504 0,-1.4151 -0.90971,-2.52696 -0.85916,-1.06132 -2.47641,-1.36455 l 2.72911,-3.13341 m 65.2459,-7.27763 v 24.25874 H 362.95932 V 542.7324 q 0,-5.05391 5.05391,-5.05391 H 401.369 m -19.76077,6.11523 h -2.42587 v 11.11859 h 7.07546 v -2.22372 h -4.64959 v -8.89487 m -34.01277,-1.36456 q 1.26348,2.93127 1.26348,6.41846 0,3.48719 -1.26348,6.41846 -1.1624,2.72911 -3.48719,5.00336 -4.70014,4.75067 -11.42183,4.75067 -6.72169,0 -11.47236,-4.75067 -4.70013,-4.70013 -4.70013,-11.42182 0,-6.72169 4.70013,-11.47237 4.75067,-4.70012 11.47236,-4.70012 6.72169,0 11.42183,4.70012 2.32479,2.3248 3.48719,5.05391 m 116.44195,0.30324 q 0,-5.05391 5.0539,-5.05391 h 33.35576 v 24.25874 H 464.03741 V 542.7324 m 14.75739,1.8194 h -2.22371 v 9.90565 h 6.41846 v -1.97102 h -4.19475 v -7.93463 m 9.0465,0 h -3.99259 v 1.92049 h 1.86995 v 7.98516 h 2.12264 v -9.90565 m -35.93326,-1.8194 v 19.20483 h -38.40967 v -24.25874 h 33.35576 q 5.05391,0 5.05391,5.05391 m -20.82208,4.24528 h 1.71832 l 1.56671,0.30323 q 0.40431,0.30324 0.40431,1.21293 0,0.90971 -0.40431,1.31402 -0.40432,0.45485 -1.61725,0.45485 h -1.66778 v -3.28503 m 1.5667,-2.17318 h -3.94204 v 11.11859 h 2.37534 v -3.53774 h 1.5667 l 2.27426,3.53774 h 2.88073 l -2.62804,-3.99259 q 2.02157,-0.75809 2.02157,-3.43666 0,-1.97101 -1.06132,-2.77964 -1.06133,-0.9097 -3.4872,-0.9097 m 216.40817,-106.94061 -21.78232,5.86252 h 22.7931 v 19.20484 q 0,0.85917 -0.60647,1.46564 -0.60646,0.55593 -1.41509,0.55593 h -26.2803 q -0.85917,0 -1.46564,-0.55593 -0.55593,-0.60647 -0.55593,-1.46564 v -17.18327 l -1.8194,-6.77223 q -0.2527,-0.85916 0.15161,-1.56671 0.45486,-0.75809 1.26348,-1.01078 l 25.3706,-6.77223 1.51617,0.20216 q 0.75809,0.40431 1.01079,1.21293 l 1.8194,6.82277 m -51.6509,-2.22372 h -3.99258 v 5.05391 h 3.99258 v -5.05391 m 3.13342,-1.01078 v 28.30186 q 0,0.85917 -0.60647,1.46564 -0.60647,0.55593 -1.41509,0.55593 h -28.30186 q -0.85916,0 -1.46563,-0.55593 -0.55593,-0.60647 -0.55593,-1.46564 v -28.25132 q 0,-0.85917 0.55593,-1.46564 0.60647,-0.60646 1.46563,-0.60646 h 28.30186 q 0.80862,0 1.41509,0.60646 0.60647,0.60647 0.60647,1.4151 m -22.28771,1.01078 v 12.12937 h 12.12937 v -12.12937 h -12.12937 m 15.16171,26.2803 h 3.99258 v -5.05391 h -3.99258 v 5.05391 m 0,-11.11858 h 3.99258 v -5.05391 h -3.99258 v 5.05391 m -3.03234,11.11858 v -11.11858 h -12.12937 v 11.11858 h 12.12937 m 9.90565,25.42114 0.0505,0.0505 q 1.11186,1.21294 0.9097,2.88072 v 0.10108 l -2.52695,13.39284 -0.0505,0.0505 q -0.20216,1.21294 -1.51618,2.07211 l -0.15161,0.0505 -2.02157,0.45486 h -15.1617 q -1.26348,0 -2.0721,-0.50539 h -0.0505 q -1.36456,-0.85917 -1.56671,-2.07211 v -0.0505 l -2.3248,-12.58422 h -4.59905 q -0.40431,0 -0.70755,-0.30323 -0.30323,-0.30324 -0.30323,-0.70755 v -2.93126 -0.10107 q 0,-0.40432 0.30323,-0.70755 0.30324,-0.30324 0.70755,-0.30324 h 12.07883 l 0.30324,0.0505 h 15.91979 q 1.66779,0 2.77965,1.1624 m -24.00605,25.11791 q 0,-1.66779 1.1624,-2.88073 1.21294,-1.1624 2.88073,-1.1624 1.66779,0 2.83018,1.1624 1.21294,1.21294 1.21294,2.88073 0,1.66778 -1.21294,2.83017 -1.16239,1.21294 -2.83018,1.21294 -1.66779,0 -2.88073,-1.21294 -1.1624,-1.16239 -1.1624,-2.83017 m 14.15094,0 q 0,-1.66779 1.16239,-2.88073 1.21294,-1.1624 2.88072,-1.1624 1.66779,0 2.83019,1.1624 1.21294,1.21294 1.21294,2.88073 0,1.66778 -1.21294,2.83017 -1.1624,1.21294 -2.83019,1.21294 -1.66778,0 -2.88072,-1.21294 -1.16239,-1.16239 -1.16239,-2.83017 m 44.42381,-25.32006 q 0,1.26347 -0.85916,2.17318 l -7.07547,7.07546 q -0.9097,0.85916 -2.17318,0.85916 -1.26347,0 -2.12264,-0.85916 -0.9097,-0.90971 -0.9097,-2.17318 0,-1.26348 0.9097,-2.12264 l 7.07546,-7.07547 q 0.85917,-0.9097 2.12264,-0.9097 1.26348,0 2.17319,0.9097 0.85916,0.85917 0.85916,2.12265 m 7.22708,-2.12265 7.07547,7.07547 q 0.85916,0.85916 0.85916,2.12264 0,1.26347 -0.85916,2.17318 -0.9097,0.85916 -2.17318,0.85916 -1.26348,0 -2.12264,-0.85916 l -7.07546,-7.07546 q -0.90971,-0.90971 -0.90971,-2.17318 0,-1.26348 0.90971,-2.12265 0.85916,-0.9097 2.12264,-0.9097 1.26347,0 2.17317,0.9097 m -17.89082,30.12127 q -0.55593,-0.35378 -0.60647,-0.85917 l -2.47645,-13.14003 q -0.15162,-0.70755 0.30323,-1.26348 0.50539,-0.55593 1.36456,-0.55593 h 26.2803 q 0.80863,0 1.31402,0.55593 0.50539,0.55593 0.40431,1.21294 l -2.47641,13.19068 -0.65701,0.85917 q -0.55593,0.35377 -1.21294,0.35377 h -21.02424 l -1.21294,-0.35377 m -49.02287,-74.444 v -5.05391 h -3.99258 v 5.05391 h 3.99258 m -31.23312,-8.08625 h 4.04312 q 0.80862,0 1.41509,0.60646 0.60647,0.60647 0.60647,1.4151 v 28.30186 q 0,0.85917 -0.60647,1.46564 -0.60647,0.55593 -1.41509,0.55593 h -4.04312 q -0.85916,0 -1.46563,-0.55593 -0.55593,-0.60647 -0.55593,-1.46564 v -28.25132 q 0,-0.85917 0.55593,-1.46564 0.60647,-0.60646 1.46563,-0.60646 m -6.67116,8.69272 q 0.60647,0.60647 0.60647,1.41509 v 20.21561 q 0,0.85917 -0.60647,1.46564 -0.60647,0.55593 -1.41508,0.55593 h -4.04313 q -0.85916,0 -1.46563,-0.55593 -0.55593,-0.60647 -0.55593,-1.46564 v -20.16507 q 0,-0.85916 0.55593,-1.46563 0.60647,-0.60647 1.46563,-0.60647 h 4.04313 q 0.80861,0 1.41508,0.60647 m 33.9117,15.56601 v 5.05391 h 3.99258 v -5.05391 h -3.99258 m 0,-6.06467 h 3.99258 v -5.05391 h -3.99258 v 5.05391 m -45.4346,0 v 12.12936 q 0,0.85917 -0.60647,1.46564 -0.60646,0.55593 -1.41508,0.55593 h -4.04313 q -0.85916,0 -1.46563,-0.55593 -0.55593,-0.60647 -0.55593,-1.46564 v -12.07883 q 0,-0.85916 0.55593,-1.46563 0.60647,-0.60647 1.46563,-0.60647 h 4.04313 q 0.80862,0 1.41508,0.60647 0.60647,0.60647 0.60647,1.4151 m -4.44743,32.04174 q 0.60647,-0.60647 1.46563,-0.60647 h 24.25874 q 0.80863,0 1.41509,0.60647 0.60647,0.60647 0.60647,1.4151 v 19.05321 h -0.0505 q 0,5.86254 -4.1442,9.95619 -4.09366,4.14421 -9.95619,4.14421 h -0.0505 q -5.86253,0 -10.00673,-4.14421 -4.09366,-4.09365 -4.09366,-9.95619 v -19.00267 q 0,-0.85917 0.55593,-1.46564 m 11.37128,6.31739 q 0.90971,-0.96024 2.17318,-0.96024 1.26348,0 2.12264,0.96024 0.9097,0.96023 0.9097,2.32479 v 7.53032 q 0,1.36456 -0.9097,2.32479 -0.85916,1.01078 -2.12264,1.01078 -1.26347,0 -2.17318,-1.01078 -0.85916,-0.96023 -0.85916,-2.32479 v -7.53032 q 0,-1.36456 0.85916,-2.32479 m -8.89486,6.06468 h 5.00335 v 3.79043 q 0.0505,2.52694 1.66779,4.34635 1.81941,2.0721 4.3969,2.02156 2.62803,0.0505 4.44743,-2.0721 l -0.10107,0.15162 q 1.71832,-1.86995 1.71832,-4.44743 v -3.79043 h 5.10445 v -9.95619 h -22.23725 v 9.95619 m 41.34093,47.5067 q 0,-5.05391 5.0539,-5.05391 h 33.35577 v 24.25874 H 565.11549 V 542.7324 m -12.12937,0 v 19.20483 h -38.40968 v -24.25874 h 33.35577 q 5.05391,0 5.05391,5.05391 m 87.28092,2.42587 q -0.96024,-0.80862 -2.22372,-0.80862 -1.31401,0 -2.12264,0.55593 -0.80862,0.55593 -1.51617,1.61725 l 1.76887,1.06132 q 0.80862,-1.36456 1.76886,-1.36456 0.50539,0 0.80863,0.35378 0.35377,0.30323 0.35377,0.80862 0,0.50538 -0.40431,1.06131 l -1.21294,1.4151 -2.93126,2.93126 v 1.66779 h 6.97438 v -1.97102 h -3.8915 l 1.76887,-1.86995 1.46562,-1.76886 0.35377,-1.46563 q 0,-1.41509 -0.96023,-2.22372 m -109.5181,2.67856 q 0,0.80863 -0.40431,1.21294 l -1.51618,0.35378 h -1.61725 v -2.93126 h 1.61725 q 1.11186,0 1.51618,0.30323 0.40431,0.30324 0.40431,1.06131 m 1.26348,-2.4764 q -0.96025,-0.80863 -3.28504,-0.80863 h -3.7399 v 9.90565 h 2.22372 v -3.13342 h 1.51618 l 2.17318,3.13342 h 2.72911 l -2.47642,-3.53773 q 1.86995,-0.70755 1.86995,-3.08289 0,-1.71831 -1.01078,-2.4764 m 44.22165,-0.80863 v 9.90565 h 6.41847 v -1.97102 h -4.19475 v -7.93463 h -2.22372 m -39.82476,1.92049 v 7.98516 h 2.12264 v -9.90565 h -3.99258 v 1.92049 h 1.86994 m 117.65488,-3.73989 v 19.20483 h -38.40966 v -24.25874 h 33.35576 q 5.0539,0 5.0539,5.05391 M 290.6885,230.04736 q 0.55593,0.60647 0.55593,1.46563 v 28.25132 q 0,0.85917 -0.55593,1.46563 -0.60646,0.55593 -1.46563,0.55593 h -2.02156 l -16.1725,-16.17248 16.1725,-16.1725 h 2.02156 q 0.85917,0 1.46563,0.60647 m 296.66416,314.30229 q -1.31401,0 -2.12264,0.55593 -0.80863,0.55593 -1.51617,1.61725 l 1.76887,1.06132 q 0.80862,-1.36456 1.76886,-1.36456 0.50539,0 0.80863,0.35378 0.35377,0.30323 0.35377,0.80862 0,0.50538 -0.40431,1.06131 l -1.21294,1.4151 -2.93127,2.93126 v 1.66779 h 6.9744 v -1.97102 h -3.89151 l 1.76887,-1.86995 1.46563,-1.76886 0.35377,-1.46563 q 0,-1.41509 -0.96024,-2.22372 -0.96024,-0.80862 -2.22372,-0.80862 m 41.13879,2.12264 1.51616,0.30323 q 0.40431,0.30324 0.40431,1.06131 0,0.80863 -0.40431,1.21294 -0.40431,0.35378 -1.51616,0.35378 h -1.61726 v -2.93126 h 1.61726 m 3.18395,-1.11186 q -0.96025,-0.80863 -3.28503,-0.80863 h -3.7399 v 9.90565 h 2.22372 v -3.13342 h 1.51618 l 2.17317,3.13342 h 2.72911 l -2.47642,-3.53773 q 1.86995,-0.70755 1.86995,-3.08289 0,-1.71831 -1.01078,-2.4764 M 270.06857,289.17804 v 4.04311 h -4.04312 v -12.12937 h 12.12937 v 4.04313 h -4.04312 l 4.04312,4.04313 v 4.04311 h -4.04312 l -4.04313,-4.04311 m 16.1725,0 4.04312,-4.04313 h -4.04312 v -4.04313 h 12.12937 v 12.12937 h -4.04313 v -4.04311 l -4.04312,4.04311 h -4.04312 v -4.04311 m -20.21562,12.12936 h 4.04312 v 4.04311 l 4.04313,-4.04311 h 4.04312 v 4.04311 l -4.04312,4.04313 h 4.04312 v 4.04313 H 266.02545 V 301.3074 m 20.21562,0 h 4.04312 l 4.04312,4.04311 v -4.04311 h 4.04313 v 12.12937 h -12.12937 v -4.04313 h 4.04312 l -4.04312,-4.04313 v -4.04311 m -65.19536,-71.26004 q 0.60647,-0.60647 1.46563,-0.60647 h 2.02156 l 16.17249,16.1725 -16.17249,16.17248 h -2.02156 q -0.85916,0 -1.46563,-0.55593 -0.55593,-0.60646 -0.55593,-1.46563 v -28.25132 q 0,-0.85916 0.55593,-1.46563 m -27.4427,15.11118 q 0.60647,0.60647 0.60647,1.46562 v 2.02156 l -14.15094,14.15094 -14.15093,-14.15094 v -2.02156 q 0,-0.85915 0.55593,-1.46562 0.60647,-0.55593 1.46563,-0.55593 h 6.06469 v -14.15094 q 0,-0.85916 0.55593,-1.46563 0.60647,-0.55593 1.46564,-0.55593 h 8.0357 q 0.85916,0 1.46563,0.55593 0.60647,0.60647 0.60647,1.46563 v 14.15094 h 6.01414 q 0.85917,0 1.46564,0.55593 m 1.66779,45.78837 q 0,0.80862 -0.65701,1.41508 l -10.15835,10.20888 4.29581,4.34636 q 0.60647,0.60646 0.65701,1.46563 -0.0505,0.85916 -0.65701,1.51617 l -1.41508,1.4151 h -20.36724 v -20.36722 l 1.41509,-1.46564 q 0.60647,-0.60647 1.51618,-0.65701 0.85916,0.0505 1.46563,0.65701 l 4.3969,4.39689 10.15835,-10.20888 q 0.60646,-0.60647 1.41509,-0.65701 0.85915,0.0505 1.46562,0.65701 l 5.76146,5.76145 q 0.60647,0.65701 0.70755,1.51618 m 52.56059,-9.85513 v 4.04313 l -4.04311,4.04313 h 4.04311 v 4.04311 h -12.12937 v -12.12937 h 4.04313 v 4.04313 l 4.04313,-4.04313 h 4.04311 m -20.21561,0 v 12.12937 h -12.12937 v -4.04311 h 4.04313 l -4.04313,-4.04313 v -4.04313 h 4.04313 l 4.04311,4.04313 v -4.04313 h 4.04313 m -12.12937,20.21562 h 12.12937 v 12.12937 h -4.04313 v -4.04313 l -4.04311,4.04313 h -4.04313 v -4.04313 l 4.04313,-4.04313 h -4.04313 v -4.04311 m 28.30187,4.04311 4.04311,4.04313 v 4.04313 h -4.04311 l -4.04313,-4.04313 v 4.04313 h -4.04313 V 301.3074 h 12.12937 v 4.04311 h -4.04311 m -5.10445,30.22236 h -16.17249 v 8.08624 h 16.17249 v -8.08624 m -6.06468,6.06468 v -4.04312 h 4.04312 v 4.04312 h -4.04312 m 14.15092,-2.02157 v 24.25874 h -32.34498 v -32.34498 h 24.25874 l 8.08624,8.08624 m -28.30185,20.21563 h 24.25874 v -12.12937 h -24.25874 v 12.12937 m -23.80389,-19.05323 1.06132,1.97103 0.0505,0.10107 q 3.18396,6.31739 -0.55593,12.88746 -3.7399,6.87331 -11.16913,7.126 -0.60647,0.0505 -1.11186,-0.35377 -0.45485,-0.40432 -0.50539,-1.06131 -0.55593,-3.63882 -0.45485,-5.35715 0.0505,-0.60647 0.40431,-1.06132 0.40431,-0.45485 1.06132,-0.45485 3.08288,-0.25269 4.6496,-2.88073 l -0.0505,0.0505 q 1.51616,-2.52694 0.4043,-5.0539 -1.46562,-3.43665 -4.95282,-3.63881 h -0.0505 q -2.47641,-0.0505 -4.24528,1.71833 2.47641,1.41509 3.48719,2.3248 0.40432,0.35377 0.5054,0.85916 l -0.0505,1.01078 -0.70755,0.75809 -14.04986,8.13678 -1.11186,0.15162 q -0.55593,-0.0505 -0.96024,-0.50539 l -0.35377,-1.01078 0.0505,-16.47573 0.20215,-0.85917 0.60647,-0.60646 0.0505,-0.0505 0.75809,-0.20215 0.75808,0.20215 3.53774,2.02156 q 1.92048,-2.57749 4.29582,-3.94204 v -0.0505 q 4.8012,-2.88073 10.00673,-1.56671 5.00336,1.21293 8.2884,5.66036 l 0.15162,0.15162 m -17.58759,72.62461 h -6.06468 q -0.85917,0 -1.46564,-0.55593 -0.55593,-0.60647 -0.55593,-1.46563 v -10.10782 h -4.04312 v -4.04312 l 16.17249,-16.17249 16.1725,16.17249 v 4.04312 h -4.04313 v 10.10782 q 0,0.85916 -0.60647,1.46563 -0.60647,0.55593 -1.41509,0.55593 h -6.06468 v -12.12938 h -8.08625 v 12.12938 m 66.661,-27.39217 v 15.26279 0.35378 q -0.30324,2.77966 -2.02157,4.54852 h -0.10107 q -1.81941,2.02157 -4.29583,2.22371 h -0.0505 q -2.57749,0.2527 -4.29581,-1.5667 -1.66779,-1.61725 -1.41509,-4.34637 0.25269,-2.42587 2.02156,-4.24528 1.71832,-1.71832 3.73988,-2.02155 h 1.36456 v -5.05391 h -10.10781 v 17.18328 q 0.10108,1.92048 -2.0721,3.84097 l -0.0505,0.15161 q -1.81941,1.76887 -4.19473,2.02157 h -0.0505 q -2.62803,0.25269 -4.29582,-1.46564 -1.71833,-1.66779 -1.4151,-4.24528 0.20216,-2.52694 1.97103,-4.39689 l 0.10107,-0.0505 q 1.66779,-1.61726 3.63882,-2.02157 h 0.0505 l 2.27425,0.10108 v -16.1725 q -0.10108,-3.13341 2.47641,-3.03234 h 13.69608 q 3.03235,0 3.03235,2.93126 m 46.49591,-50.48849 h -16.17249 v 8.08624 h 16.17249 v -8.08624 m 8.08625,8.08624 v 18.19406 q 0,0.85915 -0.60647,1.46562 -0.60647,0.55593 -1.4151,0.55593 h -28.30193 q -0.85917,0 -1.46564,-0.55593 -0.55593,-0.60647 -0.55593,-1.46562 v -18.19406 h 4.04312 v -8.08624 q 0,-1.66779 1.1624,-2.83019 1.21294,-1.21294 2.88073,-1.21294 h 16.17249 q 1.66779,0 2.83018,1.21294 1.21294,1.21294 1.21294,2.83019 v 8.08624 h 4.04313 m -14.15094,12.12937 h 2.02157 v -4.04313 h -8.08625 v 4.04313 h 2.02157 v 4.04313 h 4.04311 v -4.04313 m -8.89487,28.8578 q 0.45486,-1.56672 2.27426,-1.51618 h 13.69608 q 3.03234,0 3.03234,2.93126 v 15.26279 0.35378 l -0.30323,1.66779 -6.87331,-6.87331 0.75809,-0.20215 h 1.36455 v -5.05391 h -7.3787 l -6.57008,-6.57007 m -4.75067,1.06131 q 0.60647,-0.60646 1.46563,-0.60646 0.85917,0 1.4151,0.60646 l 23.24796,23.24797 q 0.60647,0.55593 0.60647,1.41509 0,0.85916 -0.60647,1.46563 -0.55593,0.55593 -1.4151,0.55593 -0.85916,0 -1.46563,-0.55593 l -23.24796,-23.24797 q -0.55593,-0.60646 -0.55593,-1.46563 0,-0.85916 0.55593,-1.41509 m -1.51616,18.59838 0.10108,-0.0505 q 1.66778,-1.61726 3.6388,-2.02157 h 0.0505 l 2.27426,0.10108 v -6.36792 l 4.04312,4.04312 v 8.38949 q 0.10108,1.92048 -2.0721,3.84097 l -0.0505,0.15161 q -1.8194,1.76887 -4.19474,2.02157 h -0.0505 q -2.62803,0.25269 -4.29581,-1.46564 -1.71833,-1.66779 -1.4151,-4.24528 0.20216,-2.52694 1.97103,-4.39689 m 13.0896,-1.31403 5.50876,5.50876 q -2.47641,0.10108 -4.09367,-1.61724 -1.51617,-1.46563 -1.41509,-3.89152 M 94.142178,239.5487 q 0.859164,0 1.465633,0.60647 0.555928,0.60647 0.555928,1.46563 v 8.0357 q 0,0.85917 -0.555928,1.46564 -0.606469,0.55593 -1.465633,0.55593 H 79.991237 v 6.06468 q 0,0.85916 -0.555929,1.46563 -0.606469,0.55593 -1.465633,0.55593 H 75.948114 L 61.797183,245.61339 75.948114,231.46245 h 2.021561 q 0.859164,0 1.465633,0.60647 0.555929,0.60647 0.555929,1.46564 v 6.01414 h 14.150941 m 49.528252,3.03234 v 2.02157 q 0,0.85916 -0.60647,1.46562 -0.60647,0.55593 -1.46562,0.55593 h -6.01415 v 14.15093 q 0,0.85917 -0.60647,1.46564 -0.60647,0.55593 -1.46563,0.55593 h -8.03571 q -0.85916,0 -1.46563,-0.55593 -0.55593,-0.60647 -0.55593,-1.46564 v -14.15093 h -6.06468 q -0.85917,0 -1.46563,-0.55593 -0.55593,-0.60646 -0.55593,-1.46562 v -2.02157 l 14.15093,-14.15093 14.15092,14.15093 m -20.82208,41.13878 q 0.60647,-0.60647 1.46563,-0.65701 0.85917,0 1.46564,0.60647 l 10.15834,10.20888 4.34636,-4.34635 q 0.60647,-0.60647 1.46563,-0.65701 0.9097,0.0505 1.51617,0.65701 l 1.46563,1.46563 v 20.36723 h -20.41777 l -1.41509,-1.46564 q -0.60647,-0.60647 -0.65701,-1.46563 0.0505,-0.85917 0.65701,-1.51617 l 4.34636,-4.34636 -10.15835,-10.20888 q -0.60646,-0.60646 -0.657,-1.36455 0.0505,-0.9097 0.657,-1.51617 l 5.76145,-5.76145 m -31.687975,21.83285 q -0.859164,-0.0505 -1.465632,-0.70755 l -4.396906,-4.34635 -10.158348,10.15835 q -0.606468,0.65701 -1.415092,0.70755 -0.859165,-0.0505 -1.465633,-0.70755 l -5.76145,-5.76146 q -0.606469,-0.60647 -0.657008,-1.46562 0,-0.80863 0.606469,-1.46563 l 10.158346,-10.15834 -4.295818,-4.34636 q -0.606469,-0.60647 -0.657008,-1.46563 0.05054,-0.90971 0.657008,-1.51618 l 1.415094,-1.41509 h 20.417781 v 20.36723 l -1.465632,1.41508 q -0.606468,0.65701 -1.516171,0.70755 M 27.430636,233.53456 q 0,-0.85917 0.555929,-1.46564 0.606468,-0.60647 1.465633,-0.60647 h 2.021561 l 14.150932,14.15094 -14.150932,14.15092 h -2.021561 q -0.859165,0 -1.465633,-0.55593 -0.555929,-0.60647 -0.555929,-1.46563 v -6.06468 H 13.279705 q -0.859164,0 -1.465632,-0.55593 -0.55593,-0.60647 -0.55593,-1.46564 v -8.0357 q 0,-0.85916 0.55593,-1.46563 0.606468,-0.60647 1.465632,-0.60647 h 14.150931 v -6.01414 m 5.25606,58.27151 10.208887,10.20887 q 0.606469,0.60647 0.657008,1.46564 0,0.80861 -0.606469,1.41508 l -5.81199,5.812 q -0.606468,0.60647 -1.465632,0.65701 -0.859163,-0.0505 -1.465631,-0.65701 l -10.208888,-10.20889 -4.346357,4.34635 q -0.606468,0.60647 -1.465633,0.70755 -0.859163,0 -1.465631,-0.60647 l -1.465632,-1.46562 V 283.06281 H 35.6685 l 1.465632,1.46563 q 0.606469,0.60647 0.606469,1.46564 -0.05054,0.80862 -0.657008,1.41509 l -4.396897,4.3969 m 37.752662,47.4056 q 0.606469,0.0505 1.06132,0.50539 l 5.053904,6.06469 L 86.6624,333.804 q 0.353773,-0.45485 0.960242,-0.55593 0.606468,-0.0505 1.06132,0.35377 l 6.014145,5.15498 q 0.454852,0.35377 0.505391,0.96024 0.05054,0.60647 -0.303235,1.11186 l -17.183283,20.51886 -0.707546,0.45485 h -0.808625 l -0.758086,-0.45485 -12.179908,-14.55525 q -0.404312,-0.50539 -0.353773,-1.06132 0.05054,-0.65701 0.50539,-1.01078 l 5.963606,-5.15499 q 0.505391,-0.40431 1.06132,-0.35377 m -40.98716,-7.68193 16.172493,16.1725 -16.172493,16.17248 h -4.043124 v -8.08624 h -4.043122 v 4.04313 h -8.086247 v -16.1725 q 0,-1.66779 1.162398,-2.83019 1.212937,-1.21294 2.880725,-1.21294 h 8.086246 v -8.08624 h 4.043124 M 40.722404,381.058 q 0.909703,0.9097 0.909703,2.12264 v 28.30187 q 0,1.26348 -0.909703,2.17318 v 0.0505 q -0.909702,0.80862 -2.122639,0.80862 H 17.373367 q -1.263476,0 -2.122639,-0.80862 l -0.05054,-0.0505 q -0.859163,-0.9097 -0.859163,-2.17318 v -28.25133 q 0,-1.26348 0.859163,-2.12264 v -0.0505 q 0.909703,-0.9097 2.173179,-0.9097 h 21.226398 q 1.212937,0 2.122639,0.9097 m -5.154982,5.15498 H 20.40571 v 20.21563 h 15.161712 v -20.21563 m 32.193368,-5.10444 v -0.0505 q 0.909702,-0.9097 2.173178,-0.9097 h 17.183284 q 1.212937,0 2.122639,0.9097 0.909703,0.9097 0.909703,2.12264 v 28.30187 q 0,1.26348 -0.909703,2.17318 v 0.0505 q -0.909702,0.80862 -2.122639,0.80862 H 69.933968 q -1.263476,0 -2.122639,-0.80862 l -0.05054,-0.0505 q -0.859165,-0.9097 -0.859165,-2.17318 v -28.25133 q 0,-1.26348 0.859165,-2.12264 m 5.20552,5.10444 v 20.21563 H 84.0849 V 386.21298 H 72.96631 m 70.70412,-54.68324 q 0.80863,0 1.4151,0.60647 0.60647,0.60647 0.60647,1.41509 v 6.06468 l -8.08625,8.08626 8.08625,8.08624 v 6.06469 q 0,0.85915 -0.60647,1.46562 -0.60647,0.55593 -1.4151,0.55593 h -6.06468 l -8.08624,-8.08624 -8.08625,8.08624 h -6.06468 q -0.85917,0 -1.46564,-0.55593 -0.55593,-0.60647 -0.55593,-1.46562 v -6.06469 l 8.08625,-8.08624 -8.08625,-8.08626 v -6.01414 q 0,-0.85916 0.55593,-1.46563 0.60647,-0.60647 1.46564,-0.60647 h 6.06468 l 8.08625,8.08624 8.08624,-8.08624 h 6.06468 m -14.15092,56.35103 -1.01078,-0.0505 v 20.26617 l 1.01078,-0.0505 q 3.53773,-0.30323 6.16576,-2.93127 h 0.0505 q 2.93126,-2.93127 2.93126,-7.17656 0,-4.19473 -2.93126,-7.17654 -2.67857,-2.57749 -6.2163,-2.88072 m -12.43261,-1.36456 v -0.0505 q 4.75067,-4.70012 11.42183,-4.70012 l 1.01078,0.0505 q 6.01414,0.30323 10.41104,4.70012 4.75066,4.75068 4.75066,11.42182 0,6.72171 -4.75066,11.47238 -4.3969,4.34636 -10.41104,4.70013 h -1.01078 q -6.67116,0 -11.42183,-4.70013 -4.75067,-4.75067 -4.75067,-11.47238 0,-6.67114 4.70014,-11.42182 h 0.0505 m 46.79916,46.09162 h 2.02155 l 14.15093,14.15093 v -12.07883 q 0,-0.85917 0.55593,-1.46564 0.60647,-0.60646 1.46564,-0.60646 h 2.02156 l 16.17249,16.17249 -16.17249,16.1725 h -2.02156 q -0.85917,0 -1.46564,-0.55593 -0.55593,-0.60647 -0.55593,-1.46564 v -12.12936 l -14.15093,14.15093 h -2.02155 q -0.85917,0 -1.46564,-0.55593 -0.55593,-0.60647 -0.55593,-1.46564 v -28.25132 q 0,-0.85917 0.55593,-1.46564 0.60647,-0.60646 1.46564,-0.60646 m -19.81131,1.61725 q 0.60646,0.60646 0.60646,1.41509 v 26.2803 q 0,0.85917 -0.60646,1.46564 -0.60647,0.55593 -1.4151,0.55593 h -26.28029 q -0.85917,0 -1.46564,-0.55593 -0.55593,-0.60647 -0.55593,-1.46564 v -26.22976 q 0,-0.85917 0.55593,-1.46563 0.60647,-0.60647 1.46564,-0.60647 h 26.28029 q 0.80863,0 1.4151,0.60647 m -58.877922,59.53491 q 0.353773,-0.60647 0.202157,-1.26348 -0.151618,-0.65701 -0.808626,-0.96024 l -1.263476,-0.20216 q -0.657007,0.15162 -0.960241,0.80862 -0.303235,0.55593 -0.151618,1.21294 0.151618,0.65701 0.758087,1.01078 l 1.212937,0.15162 1.01078,-0.75808 m 2.577501,-1.86995 q 0.151617,0.65701 0.758086,0.96024 l 1.263476,0.15162 1.010781,-0.70755 0.151617,-1.26347 q -0.151617,-0.65701 -0.758086,-0.96025 -0.657007,-0.40431 -1.263476,-0.25269 -0.707547,0.20215 -1.010781,0.80862 -0.303234,0.60647 -0.151617,1.26348 m 3.082882,-8.79379 q 0.606468,0.30323 0.758085,0.96024 l 3.436655,12.63476 -0.151618,1.26348 -1.01078,0.75809 -28.655645,7.58085 -1.212937,-0.15162 q -0.606469,-0.30323 -0.758086,-0.96024 l -3.436654,-12.58422 q -0.151618,-0.70755 0.151616,-1.31402 0.353774,-0.55593 1.010782,-0.75809 l 12.735838,-3.3861 -1.061321,-3.94205 q -0.202156,-0.65701 0.151617,-1.21294 l 0.252695,-0.40431 -0.05054,-0.20216 0.808625,-0.20216 1.263476,0.20216 q 0.55593,0.35377 0.758086,1.01078 l 1.06132,3.94205 12.735848,-3.38612 1.212937,0.15162 m 29.5148,11.82613 -0.80863,-3.13342 -3.18395,0.80863 0.80862,3.13342 -3.18396,0.85916 0.85917,3.13343 3.18396,-0.85917 0.85915,3.18396 3.18396,-0.80863 -0.85916,-3.18395 3.13342,-0.85917 -0.85916,-3.13342 -3.13342,0.85916 m 3.18396,-13.54446 0.80862,-0.20216 1.26348,0.20216 q 0.55593,0.35377 0.75809,1.01078 l 1.06132,3.94205 12.73584,-3.38612 1.21293,0.15162 q 0.60646,0.30323 0.75808,0.96024 l 3.43666,12.63476 -0.15162,1.26348 -1.01078,0.75809 -28.65563,7.58085 -1.21294,-0.15162 q -0.60647,-0.30323 -0.75809,-0.96024 l -3.43665,-12.58422 q -0.15162,-0.70755 0.15161,-1.31402 0.35378,-0.55593 1.01079,-0.75809 l 12.73583,-3.3861 -1.06132,-3.94205 q -0.20215,-0.65701 0.15162,-1.21294 l 0.2527,-0.40431 -0.0505,-0.20216 m -35.630024,-38.51074 2.324796,-3.33558 1.516171,1.31402 0.05054,0.0505 q 3.335577,3.38611 3.335577,8.13679 0,4.80121 -3.335577,8.13678 l -0.101078,0.10108 -1.465632,1.26347 -2.324796,-3.33557 0.909703,-0.75808 0.05054,-0.0505 q 2.223717,-2.22372 2.223717,-5.35714 0,-3.08289 -2.223717,-5.30661 l -0.05054,-0.10107 -0.909703,-0.75808 m 12.280983,60.49522 v 14.15093 l -0.30323,0.70755 -0.707547,0.30324 h -2.021562 l -0.707546,-0.30324 q -0.303235,-0.30323 -0.303235,-0.70755 v -11.11858 h -2.021561 l -0.707546,-0.30324 -0.303235,-0.70755 v -2.02156 q 0,-0.40431 0.303235,-0.70755 0.303233,-0.30323 0.707546,-0.30323 h 5.053904 q 0.404312,0 0.707547,0.30323 l 0.30323,0.70755 m 40.53232,-13.29177 q -0.65701,-0.40431 -1.26348,-0.25269 -0.70755,0.20215 -1.01078,0.80862 -0.30324,0.60647 -0.15162,1.26348 0.15162,0.65701 0.75809,0.96024 l 1.26347,0.15162 q 0.60647,-0.15162 1.01078,-0.70755 0.30324,-0.60647 0.15162,-1.26347 -0.15162,-0.65701 -0.75808,-0.96025 m -6.01416,4.44744 1.01079,-0.75808 q 0.35377,-0.60647 0.20215,-1.26348 -0.15161,-0.65701 -0.80862,-0.96024 l -1.26348,-0.20216 q -0.65701,0.15162 -0.96024,0.80862 -0.30324,0.55593 -0.15162,1.21294 0.15162,0.65701 0.75809,1.01078 l 1.21293,0.15162 m 26.17923,-1.92048 q -0.15162,-0.70755 0.15162,-1.31402 0.35377,-0.55593 1.01078,-0.75809 l 12.73584,-3.3861 -1.06132,-3.94205 q -0.20216,-0.65701 0.15161,-1.21294 l 0.2527,-0.40431 -0.0505,-0.20216 0.80863,-0.20216 1.26347,0.20216 q 0.55592,0.35377 0.75808,1.01078 l 1.06132,3.94205 12.73584,-3.38612 1.21294,0.15162 q 0.60647,0.30323 0.75808,0.96024 l 3.43666,12.63476 -0.15162,1.26348 q -0.40431,0.55593 -1.01078,0.75809 l -28.65564,7.58085 -1.21294,-0.15162 q -0.60646,-0.30323 -0.75807,-0.96024 l -3.43666,-12.58422 m -20.9737,10.05726 q 0.30323,-0.30323 0.70755,-0.30323 h 8.08624 q 0.40431,0 0.70755,0.30323 l 0.30323,0.70755 v 8.08625 l -0.30323,0.70755 q -0.30324,0.30324 -0.70755,0.30324 h -5.05391 v 2.02155 h 5.05391 q 0.40431,0 0.70755,0.30323 l 0.30323,0.70755 v 2.02156 l -0.30323,0.70755 q -0.30324,0.30324 -0.70755,0.30324 h -8.08624 q -0.40432,0 -0.70755,-0.30324 -0.30323,-0.30323 -0.30323,-0.70755 v -8.08624 q 0,-0.40431 0.30323,-0.70755 0.30323,-0.30323 0.70755,-0.30323 h 5.0539 v -2.02156 h -5.0539 q -0.40432,0 -0.70755,-0.30324 -0.30323,-0.30323 -0.30323,-0.70755 v -2.02156 q 0,-0.40431 0.30323,-0.70755 m 24.61251,-6.06468 0.85916,3.13343 3.18396,-0.85917 0.85916,3.18396 3.18397,-0.80863 -0.85917,-3.18395 3.13343,-0.85917 -0.85917,-3.13342 -3.13342,0.85916 -0.80863,-3.13342 -3.18396,0.80863 0.80863,3.13342 -3.18396,0.85916 M 81.052638,432.70891 q 0.808625,0 1.415093,0.60647 0.606469,0.60647 0.606469,1.4151 v 28.30186 q 0,0.85917 -0.606469,1.46564 -0.606468,0.55593 -1.415093,0.55593 h -2.021643 l -12.12937,-12.12938 h -4.043122 v -8.08626 h 4.043122 l 12.12937,-12.12937 h 2.021562 m -50.539039,0 q 0.808624,0 1.415093,0.60647 0.606468,0.60647 0.606468,1.4151 v 28.30186 q 0,0.85917 -0.606468,1.46564 -0.606469,0.55593 -1.415093,0.55593 h -2.021562 l -12.12937,-12.12937 h -4.043123 v -8.08626 h 4.043123 l 12.12937,-12.12937 h 2.021562 m 42.452792,61.3544 -3.13342,0.85916 -0.808624,-3.13342 -3.18396,0.80863 0.808625,3.13342 -3.18396,0.85916 0.859164,3.13343 3.183959,-0.85917 0.859164,3.18396 3.183959,-0.80863 -0.859163,-3.18395 3.13342,-0.85917 -0.859164,-3.13342 m -37.904278,5.86253 q -0.55593,0.60647 -0.55593,1.41509 0,0.85916 0.55593,1.41509 0.606468,0.60647 1.465632,0.60647 0.808625,0 1.415093,-0.60647 0.606469,-0.55593 0.606469,-1.41509 0,-0.80862 -0.606469,-1.41509 -0.606468,-0.60647 -1.415093,-0.60647 -0.859164,0 -1.465632,0.60647 m 8.541098,-0.60647 q -0.859164,0 -1.465632,0.60647 -0.55593,0.60647 -0.55593,1.41509 0,0.85916 0.55593,1.41509 0.606468,0.60647 1.465632,0.60647 0.808624,0 1.415092,-0.60647 0.606469,-0.55593 0.606469,-1.41509 0,-0.80862 -0.606469,-1.41509 -0.606468,-0.60647 -1.415092,-0.60647 m -24.258741,-4.04312 h -4.043122 v 3.99259 h -4.043124 v 4.04311 h 4.043124 v 4.04313 h 4.043122 v -4.04313 h 3.992585 v -4.04311 h -3.992585 v -3.99259 m 7.631396,-10.51212 0.454851,-0.35377 v -0.2527 h 1.010781 q 0.808625,0 1.415093,0.60647 0.606468,0.60647 0.606468,1.41509 v 5.0539 h 16.172494 q 0.808624,0 1.415093,0.60647 0.606468,0.60647 0.606468,1.41509 v 16.1725 q 0,0.85917 -0.606468,1.46563 -0.606469,0.55593 -1.415093,0.55593 h -36.38811 q -0.8591629,0 -1.4656314,-0.55593 -0.5559294,-0.60646 -0.5559294,-1.46563 v -16.12196 q 0,-0.85916 0.5559294,-1.46563 0.6064685,-0.60647 1.4656314,-0.60647 h 16.172493 v -5.00336 q 0,-0.85916 0.55593,-1.46563 m 53.015452,47.91101 q 6.721702,0 11.421833,4.70012 4.750669,4.75068 4.750669,11.47237 0,6.72169 -4.750669,11.42182 -4.700131,4.75067 -11.421833,4.75067 -6.721692,0 -11.472362,-4.75067 -4.700131,-4.70013 -4.700131,-11.42182 0,-6.72169 4.700131,-11.47237 4.75067,-4.70012 11.472362,-4.70012 m -49.174485,9.09702 h -2.779647 l -5.660373,13.14016 h 3.082881 l 1.212937,-2.83019 h 5.508755 l 1.212938,2.83019 h 3.133421 l -5.710912,-13.14016 m 49.629337,8.69272 2.021561,0.25269 q 0.707546,0.2527 0.707546,1.21294 0,0.85916 -0.657007,1.21294 l -1.819405,0.30323 H 78.7783 v -2.9818 h 1.667789 M 78.7783,545.30989 h 1.314015 l 1.819406,0.2527 q 0.50539,0.30323 0.50539,1.16239 0,0.85917 -0.555929,1.16239 l -1.768867,0.2527 H 78.7783 v -2.83018 m 2.0721,-2.52695 h -4.902286 v 13.14015 h 5.559294 q 2.577492,0 3.638811,-1.21294 0.909703,-1.06132 0.909703,-2.42588 0,-1.26347 -0.707546,-2.0721 -0.707548,-0.85916 -1.869945,-1.11186 l 0.454851,-0.20215 0.454851,-0.35378 q 0.960243,-0.70755 0.960243,-2.27425 0,-1.26347 -0.859165,-2.27426 l -1.364554,-0.85916 -2.274257,-0.35377 m -39.976378,-5.40769 q 4.750669,4.75068 4.750669,11.47237 0,6.72169 -4.750669,11.42182 -4.700131,4.75067 -11.421824,4.75067 -6.721692,0 -11.472362,-4.75067 -4.700131,-4.70013 -4.700131,-11.42182 0,-6.72169 4.700131,-11.47237 4.75067,-4.70012 11.472362,-4.70012 6.721693,0 11.421824,4.70012 m -13.089613,12.17991 1.667789,-3.8915 1.617248,3.8915 H 27.784409 M 141.9521,537.37525 q 4.75068,4.75068 4.75068,11.47237 0,6.72169 -4.75068,11.42182 -4.70012,4.75067 -11.42182,4.75067 -6.72169,0 -11.47236,-4.75067 -4.70013,-4.70013 -4.70013,-11.42182 0,-6.72169 4.70013,-11.47237 4.75067,-4.70012 11.47236,-4.70012 6.7217,0 11.42182,4.70012 M 317.52473,434.62939 q 0,-0.80863 0.60647,-1.4151 0.60647,-0.60646 1.41509,-0.60646 h 4.04313 q 0.85916,0 1.46563,0.60646 0.55593,0.60647 0.55593,1.46564 v 14.10039 14.15093 q 0,0.85917 -0.55593,1.46564 -0.60647,0.55593 -1.46563,0.55593 h -4.04313 q -0.80862,0 -1.41509,-0.55593 -0.60647,-0.60647 -0.60647,-1.46564 V 434.62939 M 137.25198,542.78294 h -3.63882 l -2.57749,3.89151 -2.62802,-3.89151 h -3.63881 l 4.29582,6.41845 -4.59906,6.7217 h 3.63881 l 2.93126,-4.29582 2.88073,4.29582 h 3.68935 l -4.54851,-6.77224 4.19474,-6.36791 m 157.4291,-109.56865 q 0.60647,0.60647 0.60647,1.4151 v 28.30186 q 0,0.85917 -0.60647,1.46564 -0.60647,0.55593 -1.41509,0.55593 h -4.04312 q -0.85916,0 -1.46563,-0.55593 -0.55593,-0.60647 -0.55593,-1.46564 v -14.15093 l -16.1725,16.1725 h -2.02155 q -0.85917,0 -1.46564,-0.55593 -0.55593,-0.60647 -0.55593,-1.46564 v -28.25132 q 0,-0.85917 0.55593,-1.46564 0.60647,-0.60646 1.46564,-0.60646 h 2.02155 l 16.1725,16.17249 v -14.10039 q 0,-0.85917 0.55593,-1.46564 0.60647,-0.60646 1.46563,-0.60646 h 4.04312 q 0.80862,0 1.41509,0.60646 m -44.42381,0 q 0.55593,0.60647 0.55593,1.46564 v 28.25132 q 0,0.85917 -0.55593,1.46564 -0.60647,0.55593 -1.46564,0.55593 h -2.02156 l -14.15092,-14.15093 v 12.12936 q 0,0.85917 -0.55593,1.46564 -0.60647,0.55593 -1.46563,0.55593 h -2.02157 l -16.17249,-16.1725 16.17249,-16.17249 h 2.02157 q 0.85916,0 1.46563,0.60646 0.55593,0.60647 0.55593,1.46564 v 12.07883 l 14.15092,-14.15093 h 2.02156 q 0.85917,0 1.46564,0.60646 m 24.81467,61.05117 h -4.04313 v 16.17249 h 16.1725 v -4.04312 h 4.04312 v 6.06469 q 0,0.85915 -0.55593,1.46562 h -0.0505 q -0.60647,0.55593 -1.4151,0.55593 h -20.21561 q -0.85917,0 -1.46564,-0.55593 -0.55593,-0.60647 -0.55593,-1.46562 v -20.16509 q 0,-0.85916 0.55593,-1.46563 0.60647,-0.60647 1.46564,-0.60647 h 6.06468 v 4.04313 m 4.04312,-9.09703 h 16.17249 q 0.40431,0 0.70755,0.30324 l 0.30323,0.70754 v 16.17249 l -0.30323,0.70755 -0.70755,0.30323 -0.70755,-0.30323 -3.33557,-3.33557 -7.3787,7.37869 -0.70755,0.30324 -0.70755,-0.30324 -8.08624,-8.08624 q -0.30323,-0.30323 -0.30323,-0.70755 0,-0.40431 0.30323,-0.70754 l 7.3787,-7.37871 -3.33557,-3.33557 q -0.30324,-0.30323 -0.30324,-0.70755 0,-0.40431 0.30324,-0.70754 0.30323,-0.30324 0.70754,-0.30324 m -28.6051,33.05253 q -0.30323,0.30324 -0.70754,0.30324 h -2.02157 q -0.40431,0 -0.70754,-0.30324 -0.30324,-0.30323 -0.30324,-0.70755 v -5.05389 h -5.0539 q -0.40431,0 -0.70754,-0.30324 -0.30324,-0.30323 -0.30324,-0.70755 v -8.08625 q 0,-0.40431 0.30324,-0.70755 0.30323,-0.30323 0.70754,-0.30323 h 2.02157 q 0.40431,0 0.70754,0.30323 l 0.30324,0.70755 v 5.05391 h 2.02155 v -5.05391 q 0,-0.40431 0.30324,-0.70755 0.30323,-0.30323 0.70754,-0.30323 h 2.02157 q 0.40431,0 0.70754,0.30323 l 0.30324,0.70755 v 14.15093 l -0.30324,0.70755 m -64.03295,-25.72437 q -0.15162,-0.65701 -0.80863,-0.96024 l -1.26348,-0.20216 q -0.657,0.15162 -0.96024,0.80862 -0.30323,0.55593 -0.15162,1.21294 0.15162,0.65701 0.75809,1.01078 l 1.21294,0.15162 q 0.65701,-0.20215 1.01078,-0.75808 0.35377,-0.60647 0.20216,-1.26348 m 2.37532,-0.60647 q 0.15162,0.65701 0.75809,0.96024 l 1.26348,0.15162 1.01078,-0.70755 0.15161,-1.26347 q -0.15161,-0.65701 -0.75808,-0.96025 -0.65701,-0.40431 -1.26348,-0.25269 -0.70755,0.20215 -1.01078,0.80862 -0.30323,0.60647 -0.15162,1.26348 m 11.11859,10.76481 0.30324,0.70755 v 14.15093 l -0.30324,0.70755 -0.70754,0.30324 h -8.08625 l -0.70755,-0.30324 q -0.30323,-0.30323 -0.30323,-0.70755 v -2.02156 q 0,-0.40431 0.30323,-0.70755 0.30324,-0.30323 0.70755,-0.30323 h 5.05391 v -2.02155 h -5.05391 l -0.70755,-0.30324 q -0.30323,-0.30323 -0.30323,-0.70755 v -2.02156 q 0,-0.40431 0.30323,-0.70755 0.30324,-0.30323 0.70755,-0.30323 h 5.05391 v -2.02156 h -5.05391 l -0.70755,-0.30324 q -0.30323,-0.30323 -0.30323,-0.70755 v -2.02156 q 0,-0.40431 0.30323,-0.70755 0.30324,-0.30323 0.70755,-0.30323 h 8.08625 q 0.40432,0 0.70754,0.30323 m 24.61251,-8.59163 -3.13341,0.85916 -0.80862,-3.13342 -3.18397,0.80863 0.80863,3.13342 -3.18396,0.85916 0.85916,3.13343 3.18396,-0.85917 0.85917,3.18396 3.18395,-0.80863 -0.85915,-3.18395 3.13341,-0.85917 -0.85917,-3.13342 m 15.56603,-1.21294 1.26348,0.15162 1.01078,-0.70755 0.15162,-1.26347 q -0.15162,-0.65701 -0.75809,-0.96025 -0.65701,-0.40431 -1.26348,-0.25269 -0.70754,0.20215 -1.01078,0.80862 -0.30323,0.60647 -0.15161,1.26348 0.15161,0.65701 0.75808,0.96024 m 2.3248,-9.75403 q 0.60647,0.30323 0.75809,0.96024 l 3.43664,12.63476 -0.15161,1.26348 -1.01078,0.75809 -28.65564,7.58085 -1.21293,-0.15162 q -0.60647,-0.30323 -0.75809,-0.96024 l -3.43666,-12.58422 q -0.1516,-0.70755 0.15162,-1.31402 0.35377,-0.55593 1.01078,-0.75809 l 12.73584,-3.3861 -1.06132,-3.94205 q -0.20216,-0.65701 0.15162,-1.21294 l 0.25269,-0.40431 -0.0505,-0.20216 0.80863,-0.20216 1.26348,0.20216 q 0.55593,0.35377 0.75808,1.01078 l 1.06132,3.94205 12.73584,-3.38612 1.21294,0.15162 m -8.64217,10.25942 q 0.15161,0.65701 0.75807,1.01078 l 1.21294,0.15162 1.01078,-0.75808 q 0.35378,-0.60647 0.20216,-1.26348 -0.15162,-0.65701 -0.80863,-0.96024 l -1.26347,-0.20216 q -0.657,0.15162 -0.96024,0.80862 -0.30323,0.55593 -0.15161,1.21294 m 9.1981,44.0195 q 4.75066,4.75068 4.75066,11.47237 0,6.72169 -4.75066,11.42182 -4.70014,4.75067 -11.42182,4.75067 -6.7217,0 -11.47237,-4.75067 -4.70013,-4.70013 -4.70013,-11.42182 0,-6.72169 4.70013,-11.47237 4.75067,-4.70012 11.47237,-4.70012 6.72168,0 11.42182,4.70012 m -64.38674,5.50876 h -3.23449 l 4.64958,8.13679 v 5.3066 h 2.98181 v -5.3066 l 4.64959,-8.13679 h -3.2345 l -2.93126,5.00336 -2.88073,-5.00336 m 49.17449,0 v 2.5775 h 2.52695 v 10.86589 h 2.88073 v -13.44339 h -5.40768 m -46.74862,-10.20888 q 6.7217,0 11.42183,4.70012 4.75067,4.75068 4.75067,11.47237 0,6.72169 -4.75067,11.42182 -4.70013,4.75067 -11.42183,4.75067 -6.72168,0 -11.47236,-4.75067 -4.70012,-4.70013 -4.70012,-11.42182 0,-6.72169 4.70012,-11.47237 4.75068,-4.70012 11.47236,-4.70012 m 112.4999,27.59431 q -4.70012,4.75067 -11.42182,4.75067 -6.72169,0 -11.47236,-4.75067 -4.70013,-4.70013 -4.70013,-11.42182 0,-6.72169 4.70013,-11.47237 4.75067,-4.70012 11.47236,-4.70012 6.7217,0 11.42182,4.70012 4.75068,4.75068 4.75068,11.47237 0,6.72169 -4.75068,11.42182 m -8.94541,-16.5768 q -1.31401,-1.11186 -3.03234,-1.11186 -1.71832,0 -2.88072,0.75809 -1.11186,0.75808 -2.0721,2.22372 l 2.42588,1.41509 q 1.11186,-1.81941 2.37532,-1.81941 0.70755,0 1.1624,0.45485 0.45485,0.45486 0.45485,1.11186 0,0.70755 -0.50539,1.41509 l -1.71832,1.92048 -3.94204,4.04313 v 2.22372 h 9.45079 v -2.67857 h -5.3066 l 2.42588,-2.52696 1.97102,-2.42587 q 0.50539,-0.96024 0.50539,-1.97102 0,-1.92048 -1.31402,-3.03234"
       id="path1"
       style="fill:#ffffff;stroke-width:1.01078" />
  </g>
</svg>
